<svg width="44" height="44" viewBox="0 0 44 44" fill="none" xmlns="http://www.w3.org/2000/svg">
<path d="M21.0833 27.4999H12.8333C10.8884 27.4999 9.02315 28.2726 7.64788 29.6478C6.27262 31.0231 5.5 32.8884 5.5 34.8333V38.4999M39.193 30.4809C39.9233 29.7506 40.3336 28.7601 40.3336 27.7273C40.3336 26.6945 39.9233 25.7039 39.193 24.9736C38.4627 24.2433 37.4722 23.833 36.4393 23.833C35.4065 23.833 34.416 24.2433 33.6857 24.9736L26.334 32.3289C25.8981 32.7646 25.5791 33.3031 25.4063 33.8946L23.8718 39.1563C23.8258 39.314 23.8231 39.4813 23.8638 39.6404C23.9046 39.7996 23.9875 39.9449 24.1037 40.0611C24.2199 40.1773 24.3651 40.2602 24.5243 40.3009C24.6835 40.3417 24.8507 40.339 25.0085 40.2929L30.2702 38.7584C30.8617 38.5857 31.4002 38.2667 31.8358 37.8308L39.193 30.4809Z" stroke="black" stroke-width="2" stroke-linecap="round" stroke-linejoin="round"/>
<path d="M18.3333 20.1667C22.3834 20.1667 25.6667 16.8834 25.6667 12.8333C25.6667 8.78325 22.3834 5.5 18.3333 5.5C14.2832 5.5 11 8.78325 11 12.8333C11 16.8834 14.2832 20.1667 18.3333 20.1667Z" stroke="black" stroke-width="2" stroke-linecap="round" stroke-linejoin="round"/>
</svg>
