<svg width="34" height="33" viewBox="0 0 34 33" fill="none" xmlns="http://www.w3.org/2000/svg">
<path d="M16.8125 0.5625C7.83438 0.5625 0.562506 7.83437 0.562506 16.8125C0.559564 20.2239 1.63136 23.5495 3.62572 26.3171C5.62008 29.0848 8.43563 31.1538 11.6726 32.2305C12.4851 32.3719 12.7906 31.8844 12.7906 31.457C12.7906 31.0719 12.7695 29.793 12.7695 28.4312C8.68751 29.1836 7.63126 27.4368 7.30626 26.5219C7.12263 26.0539 6.33126 24.6125 5.64063 24.2257C5.07188 23.9219 4.25938 23.1695 5.61951 23.15C6.90001 23.1289 7.81326 24.3281 8.11876 24.8156C9.58126 27.2726 11.9164 26.582 12.8508 26.1562C12.9938 25.1 13.4195 24.3899 13.8875 23.9836C10.2719 23.5774 6.49376 22.175 6.49376 15.9594C6.49376 14.1914 7.12263 12.7305 8.15938 11.593C7.99688 11.1868 7.42813 9.52112 8.32188 7.28675C8.32188 7.28675 9.68201 6.85938 12.7906 8.95075C14.1136 8.58455 15.4804 8.40031 16.8531 8.40312C18.2344 8.40312 19.6156 8.58512 20.9156 8.95075C24.0243 6.83825 25.3844 7.28675 25.3844 7.28675C26.2781 9.52112 25.7094 11.1868 25.5469 11.593C26.582 12.7305 27.2125 14.1719 27.2125 15.9594C27.2125 22.1961 23.4149 23.5774 19.7993 23.9836C20.3875 24.4906 20.8961 25.4656 20.8961 26.9899C20.8961 29.1625 20.875 30.9094 20.875 31.4586C20.875 31.8844 21.1805 32.3914 21.993 32.2289C25.2178 31.1387 28.0199 29.0652 30.0052 26.2999C31.9904 23.5346 33.0591 20.2166 33.0609 16.8125C33.0609 7.83437 25.789 0.5625 16.8109 0.5625" fill="white"/>
</svg>
