<svg width="41" height="41" viewBox="0 0 41 41" fill="none" xmlns="http://www.w3.org/2000/svg">
<path fill-rule="evenodd" clip-rule="evenodd" d="M5.125 13.6667C5.125 11.4013 6.02492 9.22867 7.6268 7.6268C9.22867 6.02492 11.4013 5.125 13.6667 5.125H27.3333C29.5987 5.125 31.7713 6.02492 33.3732 7.6268C34.9751 9.22867 35.875 11.4013 35.875 13.6667V27.3333C35.875 29.5987 34.9751 31.7713 33.3732 33.3732C31.7713 34.9751 29.5987 35.875 27.3333 35.875H13.6667C11.4013 35.875 9.22867 34.9751 7.6268 33.3732C6.02492 31.7713 5.125 29.5987 5.125 27.3333V13.6667ZM13.6667 8.54167C12.3074 8.54167 11.0039 9.08162 10.0427 10.0427C9.08162 11.0039 8.54167 12.3074 8.54167 13.6667V27.3333C8.54167 28.6926 9.08162 29.9961 10.0427 30.9573C11.0039 31.9184 12.3074 32.4583 13.6667 32.4583H27.3333C28.6926 32.4583 29.9961 31.9184 30.9573 30.9573C31.9184 29.9961 32.4583 28.6926 32.4583 27.3333V13.6667C32.4583 12.3074 31.9184 11.0039 30.9573 10.0427C29.9961 9.08162 28.6926 8.54167 27.3333 8.54167H13.6667ZM26.6449 12.3239C26.6449 11.8708 26.8249 11.4363 27.1452 11.1159C27.4656 10.7956 27.9001 10.6156 28.3532 10.6156H28.3703C28.8234 10.6156 29.2579 10.7956 29.5783 11.1159C29.8986 11.4363 30.0786 11.8708 30.0786 12.3239C30.0786 12.777 29.8986 13.2115 29.5783 13.5319C29.2579 13.8523 28.8234 14.0322 28.3703 14.0322H28.3532C27.9001 14.0322 27.4656 13.8523 27.1452 13.5319C26.8249 13.2115 26.6449 12.777 26.6449 12.3239ZM20.5 15.375C19.1408 15.375 17.8372 15.915 16.8761 16.8761C15.915 17.8372 15.375 19.1408 15.375 20.5C15.375 21.8592 15.915 23.1628 16.8761 24.1239C17.8372 25.085 19.1408 25.625 20.5 25.625C21.8592 25.625 23.1628 25.085 24.1239 24.1239C25.085 23.1628 25.625 21.8592 25.625 20.5C25.625 19.1408 25.085 17.8372 24.1239 16.8761C23.1628 15.915 21.8592 15.375 20.5 15.375ZM11.9583 20.5C11.9583 18.2346 12.8583 16.062 14.4601 14.4601C16.062 12.8583 18.2346 11.9583 20.5 11.9583C22.7654 11.9583 24.938 12.8583 26.5399 14.4601C28.1417 16.062 29.0417 18.2346 29.0417 20.5C29.0417 22.7654 28.1417 24.938 26.5399 26.5399C24.938 28.1417 22.7654 29.0417 20.5 29.0417C18.2346 29.0417 16.062 28.1417 14.4601 26.5399C12.8583 24.938 11.9583 22.7654 11.9583 20.5Z" fill="white"/>
</svg>
