<svg width="29" height="29" viewBox="0 0 29 29" fill="none" xmlns="http://www.w3.org/2000/svg">
<path d="M13.8125 9.83125C15.3026 8.30863 17.2429 7.3125 19.5 7.3125C21.8704 7.3125 24.1437 8.25413 25.8198 9.93023C27.4959 11.6063 28.4375 13.8796 28.4375 16.25V28.4375H25.1875V16.25C25.1875 14.7416 24.5883 13.2949 23.5217 12.2283C22.4551 11.1617 21.0084 10.5625 19.5 10.5625C17.9916 10.5625 16.5449 11.1617 15.4783 12.2283C14.4117 13.2949 13.8125 14.7416 13.8125 16.25V28.4375H10.5625V8.125H13.8125V9.83125ZM2.4375 4.875C1.79103 4.875 1.17105 4.61819 0.713927 4.16107C0.256807 3.70395 0 3.08397 0 2.4375C0 1.79103 0.256807 1.17105 0.713927 0.713927C1.17105 0.256807 1.79103 0 2.4375 0C3.08397 0 3.70395 0.256807 4.16107 0.713927C4.61819 1.17105 4.875 1.79103 4.875 2.4375C4.875 3.08397 4.61819 3.70395 4.16107 4.16107C3.70395 4.61819 3.08397 4.875 2.4375 4.875ZM0.8125 8.125H4.0625V28.4375H0.8125V8.125Z" fill="white"/>
</svg>
