<svg width="48" height="48" viewBox="0 0 48 48" fill="none" xmlns="http://www.w3.org/2000/svg">
<path d="M10 40C10 41.0609 10.4214 42.0783 11.1716 42.8284C11.9217 43.5786 12.9391 44 14 44H34C35.0609 44 36.0783 43.5786 36.8284 42.8284C37.5786 42.0783 38 41.0609 38 40V16H42V12H34V8C34 6.93913 33.5786 5.92172 32.8284 5.17157C32.0783 4.42143 31.0609 4 30 4H18C16.9391 4 15.9217 4.42143 15.1716 5.17157C14.4214 5.92172 14 6.93913 14 8V12H6V16H10V40ZM18 8H30V12H18V8ZM16 16H34V40H14V16H16Z" fill="#FFFFFF"/>
<path d="M18 20H22V36H18V20ZM26 20H30V36H26V20Z" fill="#FFFFFF"/>
</svg>