<svg width="20" height="22" viewBox="0 0 20 22" fill="none" xmlns="http://www.w3.org/2000/svg">
<path d="M2.43466 19.8182C2.43466 20.3969 2.66369 20.9519 3.07138 21.361C3.47907 21.7702 4.03201 22.0001 4.60857 22.0001H15.4781C16.0547 22.0001 16.6076 21.7702 17.0153 21.361C17.423 20.9519 17.652 20.3969 17.652 19.8182V6.72734H19.826V4.54552H15.4781V2.3637C15.4781 1.78505 15.2491 1.23009 14.8414 0.820924C14.4337 0.411754 13.8808 0.181885 13.3042 0.181885H6.78248C6.20592 0.181885 5.65298 0.411754 5.24529 0.820924C4.8376 1.23009 4.60857 1.78505 4.60857 2.3637V4.54552H0.260742V6.72734H2.43466V19.8182ZM6.78248 2.3637H13.3042V4.54552H6.78248V2.3637ZM5.69552 6.72734H15.4781V19.8182H4.60857V6.72734H5.69552Z" fill="#383838"/>
<path d="M6.78223 8.90918H8.95614V17.6365H6.78223V8.90918ZM11.1301 8.90918H13.304V17.6365H11.1301V8.90918Z" fill="#383838"/>
</svg>
