<svg width="35" height="35" viewBox="0 0 35 35" fill="none" xmlns="http://www.w3.org/2000/svg">
<path fill-rule="evenodd" clip-rule="evenodd" d="M5.10449 30.9897H7.32116C9.18783 30.9897 10.2232 30.9897 11.2441 30.5668C12.1993 30.173 12.8847 29.4949 14.1462 28.2466L14.292 28.1007L28.6712 13.707C30.0857 12.2924 30.8732 11.5049 30.9753 10.3382C30.9899 10.1341 30.9899 9.91532 30.9753 9.72573C30.8616 8.56927 30.1032 7.80365 28.7441 6.4299L28.6566 6.3424C27.2274 4.91323 26.4399 4.12573 25.2587 4.02365C25.0644 4.01067 24.8696 4.01067 24.6753 4.02365C23.4795 4.12573 22.692 4.91323 21.2774 6.3424L18.9397 8.68157L18.8901 8.73115L6.89824 20.723L6.80637 20.8134C5.5522 22.0676 4.84637 22.7734 4.43366 23.7695C4.01074 24.7757 4.01074 25.8112 4.01074 27.6778V29.8945C4.01074 30.4924 4.50658 30.9897 5.10449 30.9897ZM19.6732 11.0091L8.42949 22.2674C7.21908 23.4632 6.67949 24.0174 6.43158 24.6153C6.18366 25.2132 6.18366 26.0445 6.18366 27.6778V28.8007H7.30658C8.95449 28.8007 9.77116 28.8007 10.3982 28.5528C10.9816 28.3049 11.5503 27.7507 12.6732 26.6132L23.9753 15.3111L19.6732 11.0091ZM21.2191 9.46323L25.5212 13.7653L27.1107 12.1757C28.1024 11.1841 28.7587 10.5278 28.7878 10.1195V9.94448C28.7441 9.52157 28.0878 8.86532 27.0962 7.87365C26.1045 6.88198 25.4482 6.22573 25.0545 6.18198H24.8503C24.4478 6.21115 23.847 6.81927 22.8539 7.82698L22.8087 7.87219L21.2191 9.46323Z" fill="#9D9D9D"/>
</svg>
