<svg width="21" height="21" viewBox="0 0 21 21" fill="none" xmlns="http://www.w3.org/2000/svg">
<path d="M2.78393 1.03231C2.81844 0.943816 2.87886 0.867797 2.95728 0.814202C3.0357 0.760607 3.12848 0.731934 3.22347 0.731934C3.31845 0.731934 3.41123 0.760607 3.48965 0.814202C3.56807 0.867797 3.62849 0.943816 3.663 1.03231L4.083 2.10185C4.10634 2.16242 4.14201 2.21748 4.18774 2.26355C4.23348 2.30962 4.28828 2.34569 4.34868 2.36948L5.4143 2.79143C5.50255 2.82658 5.57822 2.8874 5.63153 2.96602C5.68484 3.04464 5.71334 3.13744 5.71334 3.23243C5.71334 3.32742 5.68484 3.42022 5.63153 3.49884C5.57822 3.57746 5.50255 3.63828 5.4143 3.67343L4.34868 4.09538C4.28837 4.11906 4.23363 4.15498 4.1879 4.20088C4.14218 4.24677 4.10646 4.30164 4.083 4.36203L3.663 5.43059C3.50477 5.83106 2.94021 5.83106 2.78393 5.43059L2.36393 4.36106C2.34037 4.30057 2.3045 4.24564 2.2586 4.19974C2.2127 4.15384 2.15776 4.11797 2.09728 4.09441L1.03165 3.67245C0.943406 3.6373 0.867734 3.57649 0.814423 3.49787C0.761113 3.41925 0.732615 3.32644 0.732615 3.23145C0.732615 3.13646 0.761113 3.04366 0.814423 2.96504C0.867734 2.88642 0.943406 2.8256 1.03165 2.79045L2.09728 2.3685C2.15786 2.34483 2.21285 2.30881 2.25876 2.26273C2.30466 2.21666 2.34048 2.16154 2.36393 2.10087L2.78393 1.03231ZM6.561 6.71989C6.59551 6.6314 6.65593 6.55538 6.73435 6.50178C6.81277 6.44819 6.90555 6.41951 7.00054 6.41951C7.09552 6.41951 7.1883 6.44819 7.26672 6.50178C7.34515 6.55538 7.40556 6.6314 7.44007 6.71989L7.59342 7.10962C7.61688 7.17001 7.65259 7.22488 7.69832 7.27077C7.74405 7.31667 7.79879 7.35259 7.85909 7.37627L8.24784 7.53059C8.33608 7.56574 8.41176 7.62656 8.46507 7.70518C8.51838 7.7838 8.54688 7.8766 8.54688 7.97159C8.54688 8.06658 8.51838 8.15939 8.46507 8.23801C8.41176 8.31662 8.33608 8.37744 8.24784 8.41259L7.85909 8.56594C7.737 8.61478 7.64128 8.7105 7.59342 8.83357L7.44007 9.22329C7.28281 9.62375 6.71826 9.62375 6.561 9.22329L6.40765 8.83259C6.38419 8.7722 6.34848 8.71733 6.30275 8.67143C6.25702 8.62554 6.20228 8.58962 6.14198 8.56594L5.75323 8.41259C5.66499 8.37744 5.58932 8.31662 5.53601 8.23801C5.4827 8.15939 5.4542 8.06658 5.4542 7.97159C5.4542 7.8766 5.4827 7.7838 5.53601 7.70518C5.58932 7.62656 5.66499 7.56574 5.75323 7.53059L6.14198 7.37627C6.20228 7.35259 6.25702 7.31667 6.30275 7.27077C6.34848 7.22488 6.38419 7.17001 6.40765 7.10962L6.561 6.71989Z" fill="white" stroke="white"/>
<path d="M20.0215 11C19.9066 13.1895 19.0403 15.2737 17.5684 16.8994L17.2422 17.2422C15.5723 18.9121 13.3466 19.8974 11 20.0205V20.4873C16.1248 20.2349 20.2349 16.1248 20.4873 11H20.0215ZM0.512695 11C0.76507 16.1248 4.87515 20.2349 10 20.4873V20.0205C7.81047 19.9056 5.7263 19.0403 4.10059 17.5684L3.75781 17.2422C2.24542 15.7298 1.29666 13.7613 1.03906 11.6602C0.879977 11.4503 0.730817 11.2324 0.59375 11.0059C0.592815 11.0044 0.590773 11.0035 0.589844 11.002L0.588867 11H0.512695ZM13.1758 7.58105C13.0661 8.91995 12.5194 10.1881 11.6152 11.1865L11.4062 11.4062C10.3776 12.4349 9.02017 13.0569 7.58105 13.1748V13.6416C9.03583 13.5309 10.4152 12.9415 11.499 11.96L11.7354 11.7354C12.8513 10.6195 13.5226 9.14372 13.6416 7.58105H13.1758ZM1.97168 10.7461C1.97666 10.919 1.9856 11.0913 2.00098 11.2627C2.42452 11.7771 2.92176 12.2274 3.48145 12.5928L3.84473 12.8125C4.68669 13.2877 5.62108 13.5687 6.58105 13.6416V13.1738C5.83207 13.1124 5.10023 12.9167 4.42285 12.5898L4.07324 12.4072C3.30102 11.9712 2.63725 11.3716 2.12109 10.6553L1.97168 10.7461ZM1.06934 9.88477C0.960691 9.89961 0.853298 9.93814 0.761719 10H1.27344L1.41602 9.91406C1.33624 9.88992 1.25411 9.87774 1.17383 9.87793L1.06934 9.88477ZM11 0.589844C11.2285 0.727789 11.4486 0.877759 11.6602 1.03809C13.7613 1.29567 15.7298 2.24539 17.2422 3.75781C18.9121 5.42774 19.8983 7.65333 20.0215 10H20.4873C20.2349 4.87514 16.1249 0.76407 11 0.511719V0.589844ZM10.6562 2.12109C11.2658 2.56049 11.7909 3.10666 12.2021 3.73633L12.4072 4.07324C12.8432 4.8453 13.1027 5.70131 13.1748 6.58105H13.6416C13.5793 5.7618 13.366 4.96111 13.0088 4.2207L12.8125 3.84473C12.4129 3.13694 11.8861 2.51305 11.2627 2C11.0916 1.98465 10.9197 1.9757 10.7471 1.9707L10.6562 2.12109ZM10 0.761719C9.9587 0.822859 9.92767 0.891064 9.90723 0.961914L9.88477 1.06934C9.86981 1.18088 9.88042 1.30032 9.91504 1.41504L10 1.27344V0.761719Z" fill="white" stroke="white"/>
</svg>
