<svg width="27" height="17" viewBox="0 0 27 17" fill="none" xmlns="http://www.w3.org/2000/svg">
<path fill-rule="evenodd" clip-rule="evenodd" d="M13.5 15.5429C18.4508 15.5429 22.9328 12.8107 25.3407 8.5C22.9328 4.18929 18.4508 1.45714 13.5 1.45714C8.54918 1.45714 4.06718 4.18929 1.65927 8.5C4.06718 12.8107 8.54918 15.5429 13.5 15.5429ZM13.5 0C19.4007 0 24.5111 3.45829 27 8.5C24.5111 13.5417 19.4007 17 13.5 17C7.59927 17 2.48891 13.5417 0 8.5C2.48891 3.45829 7.59927 0 13.5 0ZM13.5 11.9C14.4114 11.9 15.2854 11.5418 15.9299 10.9042C16.5743 10.2665 16.9364 9.40174 16.9364 8.5C16.9364 7.59826 16.5743 6.73346 15.9299 6.09584C15.2854 5.45821 14.4114 5.1 13.5 5.1C12.5886 5.1 11.7146 5.45821 11.0701 6.09584C10.4257 6.73346 10.0636 7.59826 10.0636 8.5C10.0636 9.40174 10.4257 10.2665 11.0701 10.9042C11.7146 11.5418 12.5886 11.9 13.5 11.9ZM13.5 13.3571C12.198 13.3571 10.9494 12.8454 10.0287 11.9345C9.10812 11.0236 8.59091 9.78819 8.59091 8.5C8.59091 7.21181 9.10812 5.97637 10.0287 5.06548C10.9494 4.15459 12.198 3.64286 13.5 3.64286C14.802 3.64286 16.0506 4.15459 16.9713 5.06548C17.8919 5.97637 18.4091 7.21181 18.4091 8.5C18.4091 9.78819 17.8919 11.0236 16.9713 11.9345C16.0506 12.8454 14.802 13.3571 13.5 13.3571Z" fill="black"/>
</svg>
