<svg width="22" height="20" viewBox="0 0 22 20" fill="none" xmlns="http://www.w3.org/2000/svg">
<path d="M11 2.99797C9.16405 2.99797 7.64404 3.38697 6.38304 3.96897L2.70704 0.292969L1.29304 1.70697L4.60804 5.02297C1.99504 6.97497 1.06505 9.64097 1.05105 9.68297L0.946045 9.99897L1.05105 10.315C1.07305 10.382 3.36704 17 11 17C12.835 17 14.354 16.611 15.615 16.029L19.293 19.707L20.707 18.293L17.39 14.976C20.004 13.024 20.935 10.358 20.949 10.316L21.054 9.99997L20.949 9.68397C20.927 9.61597 18.633 2.99797 11 2.99797ZM3.07404 9.99997C3.17704 9.76397 3.34804 9.41397 3.59504 9.01097L9.46204 14.878C5.24904 14.23 3.52304 11.035 3.07404 9.99997ZM12.321 14.907L4.84104 7.42597C5.20509 7.06179 5.60287 6.73298 6.02904 6.44397L14.084 14.498C13.5119 14.6943 12.9212 14.8313 12.321 14.907ZM15.969 13.555L14.428 12.014C14.782 11.418 15 10.734 15 9.99897C15 9.52497 14.901 9.07497 14.745 8.64997C14.6535 8.75869 14.5396 8.84628 14.4109 8.9067C14.2823 8.96712 14.1421 8.99894 14 8.99997C13.7348 8.99997 13.4805 8.89461 13.2929 8.70708C13.1054 8.51954 13 8.26518 13 7.99997C13 7.56097 13.288 7.19797 13.682 7.06397C12.9533 6.38512 11.996 6.00498 11 5.99897C10.265 5.99897 9.58104 6.21697 8.98504 6.57097L7.91504 5.50097C8.9076 5.1603 9.95069 4.99023 11 4.99797C16.351 4.99797 18.425 8.84497 18.926 9.99797C18.2849 11.4322 17.262 12.6626 15.969 13.555Z" fill="black"/>
</svg>
