<svg width="1440" height="417" viewBox="0 0 1440 417" fill="none" xmlns="http://www.w3.org/2000/svg">
<path fill-rule="evenodd" clip-rule="evenodd" d="M0.000119909 20.9999L25.9449 35.0961C71.2195 50.2065 159.119 80.4656 247.764 71.3028C336.41 62.14 423.151 13.5934 512.259 35.9529C601.368 58.3123 690.194 151.616 779.882 213.378C869.569 275.14 957.47 305.4 1046.35 311.998C1135.22 318.596 1222.43 301.572 1310.61 260.887C1398.79 220.202 1393.92 229.673 1438.5 197.5L1438.5 125.499L1438.5 416.999C1393.46 417.65 1379.76 415.717 1291 417C1202.24 418.282 1143.26 415.717 1054.5 417C965.739 418.282 868.643 415.717 779.882 417C691.121 418.282 595.261 415.717 506.5 417C417.739 418.282 335.261 415.717 246.5 417C157.739 418.282 86.5433 416.349 41.5004 417L0.000305752 417L0.000119909 20.9999Z" fill="#A00000"/>
<path fill-rule="evenodd" clip-rule="evenodd" d="M-0.996643 76.8253L8.00323 95.8251C32.0032 129.825 53.1277 142.775 141.773 133.612C230.418 124.449 317.16 75.9028 406.268 98.2623C495.377 120.622 584.203 213.925 673.891 275.688C763.578 337.45 851.478 367.709 940.355 374.307C1029.23 380.906 1116.44 363.881 1204.62 323.196C1292.8 282.511 1390 212.5 1404 196L1442 153.825L1442 417.326L1298 417.326C1252.96 417.976 1201.26 416.043 1112.5 417.326C1023.74 418.608 998.264 416.044 909.503 417.326C820.742 418.608 714.264 416.043 625.503 417.326C536.742 418.608 495.029 416.043 406.268 417.326C317.507 418.608 340.764 416.043 252.003 417.326C163.242 418.608 114.046 416.675 69.0031 417.326L0.00347007 417.326L-0.996643 76.8253Z" fill="#690202"/>
</svg>
