<svg width="1440" height="203" viewBox="0 0 1440 203" fill="none" xmlns="http://www.w3.org/2000/svg">
<path d="M-34.7501 3.20508L-45.2434 159.295C21.8161 175.587 193.379 204.79 323.519 187.009C453.659 169.227 712.744 133.554 826.019 117.94C877.29 111.259 986.843 97.2537 1014.89 94.6782C1042.94 92.1027 1114.32 87.2306 1142.97 86.7183C1174.05 86.9793 1248.24 88.0541 1286.34 91.1851C1324.43 94.3161 1396.36 106.75 1427.77 114.209L1477.73 128.935L1478.35 120.155C1443.98 104.808 1352.09 76.176 1294.61 70.9246C1270.57 68.7282 1213.32 64.2649 1187.53 63.4996C1152.15 62.4495 1052.05 61.8598 1008.96 64.2588C974.489 66.178 911.31 70.0481 884.028 71.7432L555.855 94.588C504.899 96.8373 397.401 101.138 375.065 100.348C347.144 99.3609 234.326 93.8956 190.456 80.9778C157.646 72.9216 90.2313 55.7901 83.0559 51.7141C75.8806 47.638 -0.317651 17.6333 -34.7501 3.20508Z" fill="#690202"/>
<path d="M460.682 85.6678C260.027 100.037 76.4576 49.3039 -9.94027 14.1351L35.1637 34.7435L84.3837 55.1207C96.4068 60.6864 155.552 78.8255 194.035 87.2802C216.636 92.2457 276.806 100.815 315.058 103.479C345.659 105.611 404.625 108.121 503.556 102.576L803.161 80.9611L977.567 68.3718C1001.11 68.5546 1059.2 61.9549 1195.27 66.3793C1331.34 70.8037 1443.93 105.514 1479.72 123.331L1483.5 67.0691L1437.92 50.8051L1416.63 45.6806L1393.48 40.8203C1341.69 27.5265 1239.45 23.1159 1222.33 22.8065C1205.2 22.4971 1074.11 21.7413 977.567 34.7435C881.021 47.7456 683.416 69.7179 460.682 85.6678Z" fill="#720505"/>
<path opacity="0.8" d="M-40.3054 109.275C97.5961 131.909 312.282 177.513 379.949 181.926C444.055 189.529 554.144 187.796 647.742 166.016C741.339 144.237 832.857 122.868 900.975 109.275L1007.1 83.7532L1095.67 59.7028C1054.11 61.6061 938.181 66.8378 913.74 68.9575C888.751 71.1247 811.764 74.5639 775.558 77.4934L591.819 93.3602L496.221 101.858C470.993 103.188 417.811 105.849 406.903 105.857C393.269 105.867 318.925 104.516 291.094 101.446C263.263 98.376 211.335 91.3904 203.32 89.1487C195.305 86.9071 158.871 79.9101 139.17 72.901C123.762 68.3235 89.6258 57.7101 76.3481 51.8763C63.0704 46.0424 20.4081 27.3815 0.736605 18.7804L-33.0146 0.824766L-40.3054 109.275Z" fill="#AE0000"/>
</svg>
