<svg width="1440" height="499" viewBox="0 0 1440 499" fill="none" xmlns="http://www.w3.org/2000/svg">
<path fill-rule="evenodd" clip-rule="evenodd" d="M1556.34 141.368L1507.8 186.136C1459.25 230.903 1362.15 320.439 1255.62 294.006C1149.09 267.573 1033.11 125.17 924.061 67.8119C815.01 10.4535 712.881 38.1391 610.752 65.8246C508.623 93.5102 406.494 121.196 301.219 110.225C195.943 99.2542 87.5212 49.6271 33.3102 24.8136L-20.9008 4.14176e-05L9.3066 371.101L61.6297 372.721C113.953 374.34 218.599 377.58 323.245 380.819C427.891 384.059 532.537 387.298 637.183 390.538C741.829 393.777 846.476 397.017 951.122 400.256C1055.77 403.496 1160.41 406.735 1265.06 409.975C1369.71 413.214 1474.35 416.454 1526.68 418.074L1579 419.693L1556.34 141.368Z" fill="#690202"/>
<path fill-rule="evenodd" clip-rule="evenodd" d="M1487.08 187.795L1440.01 238.001C1392.94 288.206 1298.79 388.616 1194.11 359.545C1089.42 330.473 974.198 171.918 866.703 108.317C759.207 44.7169 659.441 76.0701 559.675 107.423C459.909 138.777 360.142 170.13 256.863 158.322C153.583 146.515 46.7905 91.5461 -6.60588 64.0619L-60.0023 36.5777L-26.2748 450.922L25.0136 452.509C76.302 454.097 178.879 457.273 281.456 460.448C384.033 463.624 486.609 466.799 589.186 469.974C691.763 473.15 794.34 476.325 896.917 479.501C999.494 482.676 1102.07 485.852 1204.65 489.027C1307.22 492.202 1409.8 495.378 1461.09 496.966L1512.38 498.553L1487.08 187.795Z" fill="#A00000"/>
</svg>
