<svg width="1390" height="402" viewBox="0 0 1430 402" fill="none" xmlns="http://www.w3.org/2000/svg">
<path d="M968.648 232.282C1160.12 198.115 1341.89 288.148 1428.6 351.962L1383.1 314.379L1333.67 277.375C1321.53 267.22 1262.78 234.807 1224.9 220.073C1202.65 211.42 1143.91 197.214 1106.85 193.466C1077.2 190.468 1020.24 187.724 925.673 201.648L639.794 252.967L473.378 282.853C450.72 283.314 395.539 297.838 264.23 294.105C132.922 290.371 27.5863 224.231 -8.66817 191.627L-6.31161 307.604L32.5 332L53.5 341L76.2604 349.435C127.441 372.9 219.5 385 236 385C252.5 385 394.5 385 486 357C577.5 329 756.106 270.207 968.648 232.282Z" fill="#A00000"/>
<path d="M1445.06 371.132L1445.06 59.5C1379.2 29.4928 1210.49 -21.8561 1088.02 18.2471C965.541 58.3503 721.745 138.733 615.157 173.912C566.871 189.065 463.665 220.907 437.133 227.048C410.6 233.19 342.897 245.47 315.568 247.526C285.829 248.13 214.793 248.673 178.041 243.817C141.289 238.962 71.1805 216.811 40.3571 203.098L-8.99429 175.59L-8.63871 193.09C25.8735 222.4 116.813 276.074 172.321 284.449C195.537 287.953 250.752 294.767 275.483 295.358C309.416 296.169 405.166 293.724 446.094 287.39C478.837 282.323 538.811 272.334 564.705 267.973L875.93 210.629C929.5 201 1026.67 192.625 1048.12 192.625C1104.5 192.625 1174.37 206.735 1226.68 224.511C1260.5 236 1308 259.5 1332.51 278.882C1349.91 292.64 1410.59 343.655 1445.06 371.132Z" fill="#690202"/>
<path opacity="0.8" d="M1525 113C1432.38 22.3001 1151.61 -32.9131 1082.07 -31.5C1028.78 -35.7936 919.084 -35.5854 848 0.500033C776.916 36.5855 664.83 94.4901 616.146 125.131L458.814 221.664C497.904 217.612 583.67 207.22 606.016 202.074C628.363 196.927 701.927 184.158 735.915 178.417L908.348 147.542L998.051 131.057C1021.77 128.294 1071.78 122.716 1082.07 122.507C1094.93 122.245 1165.11 123.263 1191.51 128.103C1217.92 132.943 1267.26 144.16 1274.94 147.914C1282.62 151.668 1317.34 163.181 1336.29 175.016C1351.07 182.699 1383.82 200.541 1396.65 210.447C1409.48 220.352 1450.7 252.034 1469.7 266.637L1502.48 297.252L1525 113Z" fill="#AE0000"/>
</svg>
