<svg width="1440" height="360" viewBox="0 0 1440 360" fill="none" xmlns="http://www.w3.org/2000/svg">
<path d="M968.644 189.758C1160.12 155.592 1341.88 245.625 1428.6 309.439L1383.1 271.855L1333.66 234.852C1321.53 224.696 1262.78 192.283 1224.9 177.55C1202.65 168.897 1143.9 154.69 1106.84 150.942C1077.19 147.944 1020.23 145.201 925.669 159.125L639.789 210.443L473.373 240.33C450.715 240.79 395.535 255.314 264.226 251.581C132.918 247.848 27.5819 181.707 -8.67256 149.104L-6.31601 265.08L32.4956 289.476L53.4956 298.476L76.256 306.911C127.436 330.376 219.496 342.476 235.996 342.476C252.496 342.476 394.496 342.476 485.996 314.476C577.496 286.476 756.102 227.684 968.644 189.758Z" fill="#720505"/>
<path d="M1445.06 328.608L1445.06 16.9763C1379.19 -13.0309 1210.49 -64.3798 1088.01 -24.2766C965.537 15.8266 721.741 96.2096 615.152 131.388C566.866 146.542 463.661 178.383 437.129 184.525C410.596 190.666 342.893 202.946 315.564 205.002C285.825 205.606 214.789 206.149 178.037 201.294C141.284 196.438 71.1762 174.287 40.3528 160.575L-8.99856 133.066L-8.64298 150.566C25.8693 179.876 116.809 233.55 172.317 241.926C195.533 245.429 250.748 252.243 275.479 252.835C309.412 253.646 405.162 251.2 446.09 244.866C478.833 239.799 538.807 229.81 564.701 225.449L875.926 168.106C924.392 158.786 1022.5 149.5 1050.5 149.5C1104.5 149.5 1172.5 162 1226.68 181.987C1280.86 201.974 1323.72 230.21 1332.51 236.358C1342 243 1410.58 301.131 1445.06 328.608Z" fill="#A00000"/>
<path opacity="0.8" d="M1523.91 54.2367C1429.97 -50.5508 1145.83 -114.983 1075.5 -113.554C1021.58 -118.654 910.636 -118.729 838.842 -77.3476C767.049 -35.9666 653.847 30.4413 604.694 65.6125L416 189.5C455.526 184.942 572.082 160.118 594.669 154.251C617.256 148.385 691.625 133.881 725.986 127.362L900.302 92.2763L990.983 73.5353C1014.97 70.4193 1065.53 64.1345 1075.94 63.9231C1088.94 63.6589 1159.93 65.0329 1186.65 70.686C1213.37 76.3391 1263.31 89.4065 1271.09 93.7547C1278.86 98.103 1314.02 111.471 1333.22 125.163C1348.18 134.059 1381.36 154.714 1394.37 166.166C1407.37 177.618 1449.15 214.246 1468.42 231.129L1501.66 266.503L1523.91 54.2367Z" fill="#AE0000"/>
</svg>
