<svg width="881" height="1039" viewBox="0 0 881 1039" fill="none" xmlns="http://www.w3.org/2000/svg">
<path d="M0 0C17.3333 42 46.8 142.9 26 210.5C5.2 278.1 10.6667 325.333 16 340.5C26.6667 377.833 80.8 449.2 212 436C343.2 422.8 434.333 524.5 463.5 577C491.278 627 507.865 767.537 551 795.5C623.5 842.5 694 800.5 783 880C854.2 943.6 898.167 1030.5 923.5 1038.5L886.5 0H0Z" fill="#690202"/>
<path d="M174.962 2C184.741 38.5317 194.52 128.233 155.403 194.782C116.285 261.331 136.433 330.154 155.403 355.874C179.96 383.603 256.456 419.782 365.985 342.669C475.513 265.557 572.437 355.433 607.208 410.011C619.595 427.837 639.545 498.083 620.247 636.464C600.95 774.844 759.814 796.135 791.108 803.398C822.402 810.66 977.257 805.665 944.655 817V2H174.962Z" fill="#A00000"/>
<path d="M368 0C424.922 33.5662 559.356 102.145 641.711 107.931C724.067 113.717 787.044 158.188 808.239 179.7C822.772 195.648 854.261 250.133 863.95 340.484C873.639 430.835 875.187 506.807 887.5 512L902.706 0H368Z" fill="#B40303"/>
</svg>
