<svg width="1440" height="432" viewBox="0 0 1440 432" fill="none" xmlns="http://www.w3.org/2000/svg">
<path fill-rule="evenodd" clip-rule="evenodd" d="M1516.34 154.978L1467.8 204.056C1419.25 253.134 1322.16 351.29 1215.62 322.312C1109.09 293.334 993.114 137.221 884.063 74.3406C775.011 11.4599 672.883 41.811 570.754 72.1621C468.625 102.513 366.496 132.864 261.221 120.837C155.945 108.81 47.5231 54.4051 -6.6879 27.2026L-60.8989 -1.88156e-08L-30.6915 406.83L21.6316 408.605C73.9546 410.381 178.601 413.933 283.247 417.484C387.893 421.035 492.539 424.587 597.185 428.138C701.831 431.69 806.477 435.241 911.124 438.792C1015.77 442.344 1120.42 445.895 1225.06 449.446C1329.71 452.998 1434.35 456.549 1486.68 458.325L1539 460.101L1516.34 154.978Z" fill="#690202"/>
<path fill-rule="evenodd" clip-rule="evenodd" d="M1447.08 205.876L1400.01 260.915C1352.94 315.954 1258.79 426.032 1154.11 394.161C1049.42 362.29 934.2 188.47 826.705 118.746C719.209 49.0221 619.443 83.394 519.677 117.766C419.91 152.138 320.144 186.51 216.865 173.565C113.585 160.621 6.79235 100.36 -46.604 70.2296L-100 40.0993L-66.2728 494.336L-14.9845 496.076C36.3038 497.817 138.881 501.298 241.458 504.779C344.034 508.261 446.611 511.742 549.188 515.223C651.765 518.704 754.342 522.185 856.919 525.666C959.496 529.148 1062.07 532.629 1164.65 536.11C1267.23 539.591 1369.8 543.072 1421.09 544.813L1472.38 546.553L1447.08 205.876Z" fill="#A00000"/>
</svg>
