<svg width="1436" height="1248" viewBox="0 0 1436 1248" fill="none" xmlns="http://www.w3.org/2000/svg">
<path d="M1551 199H1439.31L1449.21 274.214C1452.7 299.345 1451.47 371.156 1449.21 387.035C1446.94 402.913 1439.78 439.267 1436.48 455.458C1428.24 482.097 1410.33 537.671 1404.67 546.864L1377.81 602.752L1338.93 666.997C1326.94 684.69 1299.34 714.006 1287.33 726.019C1275.31 738.033 1185.45 809.786 1174.84 817.621C1166.36 823.888 1099.92 868.963 1069.52 890.552L972.793 946.414L884.664 998.138L808 1039C890.236 1030.12 1020.12 1032.62 1182.71 964.719C1224.41 947.301 1341.63 903.527 1419.52 852.421C1503.3 797.448 1539.69 769.086 1551 760.207V199Z" fill="#690202"/>
<path d="M1501 826.566V767L1416.42 825.052C1385.99 846.25 1321.77 887.838 1305.66 894.702C1289.54 901.566 1222.86 935.079 1190.19 950.221L1106.95 984.036C1075.63 993.289 1010.02 1012.6 992.835 1015.83C961.732 1020.04 895.311 1030.89 880.274 1032.1C865.237 1033.31 827.474 1036.36 810.245 1038.04C773.324 1038.88 694.38 1040.06 665.918 1038.04C637.455 1036.02 543.296 1038.88 502.795 1040.56C445.735 1040.56 345.842 1056.52 299.394 1064.29C251.062 1072.36 201.386 1094.74 183.262 1100.62C150.369 1111.31 86.5962 1148.67 59.7446 1173.3C32.8931 1197.93 8.95051 1233.2 0 1248L53.1604 1248C62.5584 1234.71 84.5245 1207.89 99.0243 1197.79C117.149 1185.17 129.559 1167.25 156.41 1154.63C183.262 1142.01 206.085 1127.88 241.664 1118.79C277.242 1109.71 300.066 1103.15 330.274 1095.58C354.44 1089.52 402.102 1084.31 422.911 1082.45C446.63 1079.59 502.258 1074.18 535.017 1075.39C575.965 1076.9 651.821 1075.39 718.278 1075.39C784.736 1075.39 899.526 1070.85 949.201 1060.75C996.191 1054.7 1079.16 1027.95 1126.42 1011.8C1187.06 990.093 1309.01 939.117 1330.49 925.49C1375.02 902.273 1471.46 849.985 1501 826.566Z" fill="#B50909"/>
<path d="M1501 827V1248H1291.75H659.271H49C59.7655 1230.82 90.0436 1196.95 110.902 1181.29C131.76 1165.62 188.338 1132.89 209.869 1126.42C236.783 1118.34 290.551 1101.94 357.163 1088.29C410.452 1077.38 487.022 1074.65 518.646 1074.65H698.296C761.767 1074.48 904.59 1070.3 968.107 1054.94L970.997 1054.24C1049.49 1035.25 1128.17 1014.72 1177.36 991.256C1185.44 991.256 1326.06 929.091 1366.43 904.832L1501 827Z" fill="#9B0A0A"/>
<path opacity="0.8" d="M1434.52 0C1453.13 82.4728 1421.84 263.193 1409.67 305.704C1395.94 353.674 1381.02 426.745 1363.28 471.146C1353.51 495.611 1315.21 569.127 1304.76 587.978C1294.31 606.828 1276.2 639.724 1261.9 659.72C1237.18 694.279 1182.37 763.075 1168.76 776.281C1150.5 794 1009.9 914.782 944 964L971 952L994.5 940L1022.44 925.308L1128.4 858.795L1175.43 825.492L1209.8 798.788L1283.06 741.922C1318.93 710.086 1394.48 638.497 1409.67 606.828C1427.16 580.228 1464.48 520.745 1473.89 495.611C1480.82 482.416 1495.95 451.752 1501.02 434.661C1506.08 417.57 1520.5 384.726 1524.11 372.369C1530.14 348.911 1538.78 308.654 1540.41 296.769C1545.83 257.183 1552.17 179.216 1550.36 176.075C1549.46 160.994 1552.17 78.9647 1550.36 69.0173V26.8646L1434.52 0Z" fill="#A00000"/>
</svg>
