<svg width="324" height="1024" viewBox="0 0 324 1024" fill="none" xmlns="http://www.w3.org/2000/svg">
<path fill-rule="evenodd" clip-rule="evenodd" d="M17.4837 -42.9999L29.0017 -9.82857C40.505 24.3427 63.5409 90.6853 56.5653 157.591C49.5898 224.496 12.632 289.965 29.6539 357.22C46.6758 424.475 117.707 491.517 164.725 559.209C211.744 626.902 234.78 693.244 239.803 760.324C244.826 827.405 231.866 893.223 200.893 959.779C169.92 1026.33 120.963 1091.63 96.4706 1125.27L71.9924 1157.92L323.966 1161.59L324.446 1128.6C324.942 1094.6 325.903 1028.61 326.88 961.615C327.856 894.622 328.817 828.629 329.794 761.636C330.77 694.643 331.731 628.65 332.707 561.657C333.684 494.664 334.645 428.671 335.621 361.678C336.598 294.685 337.559 228.692 338.535 161.699C339.512 94.7066 340.473 28.7136 340.969 -5.2828L341.449 -38.2793L17.4837 -42.9999Z" fill="#A00000"/>
<path fill-rule="evenodd" clip-rule="evenodd" d="M60.4837 -123L72.0017 -89.8286C83.505 -55.6573 106.541 10.6853 99.5653 77.5908C92.5898 144.496 55.632 209.965 72.6539 277.22C89.6758 344.475 160.707 411.517 207.725 479.209C254.744 546.902 277.78 613.244 282.803 680.324C287.826 747.405 274.866 813.223 243.893 879.779C212.92 946.335 163.963 1011.63 139.471 1045.27L114.992 1077.92L366.966 1081.59L367.446 1048.6C367.942 1014.6 368.903 948.607 369.88 881.615C370.856 814.622 371.817 748.629 372.794 681.636C373.77 614.643 374.731 548.65 375.707 481.657C376.684 414.664 377.645 348.671 378.621 281.678C379.598 214.685 380.559 148.692 381.535 81.6995C382.512 14.7066 383.473 -51.2864 383.969 -85.2828L384.449 -118.279L60.4837 -123Z" fill="#690202"/>
</svg>
