<svg width="1440" height="1205" viewBox="0 0 1440 1205" fill="none" xmlns="http://www.w3.org/2000/svg">
<path d="M1431 783.357V721.5L1346.42 781.785C1315.99 803.798 1251.77 846.986 1235.66 854.114C1219.54 861.242 1152.86 896.044 1120.19 911.767L1036.95 946.884C1005.63 956.493 940.02 976.549 922.835 979.903C891.732 984.271 825.311 995.541 810.274 996.799C795.237 998.056 757.474 1001.22 740.245 1002.96C703.324 1003.84 624.38 1005.06 595.918 1002.96C567.455 1000.87 473.296 1003.84 432.795 1005.59C375.735 1005.59 275.842 1022.16 229.394 1030.22C181.062 1038.61 131.386 1061.84 113.262 1067.96C80.3685 1079.05 16.5962 1117.85 -10.2554 1143.43C-37.1069 1169.01 -61.0495 1205.63 -70 1221L-16.8396 1221C-7.44155 1207.2 14.5245 1179.34 29.0243 1168.86C47.1491 1155.76 59.5586 1137.14 86.4101 1124.04C113.262 1110.93 136.085 1096.26 171.664 1086.82C207.242 1077.39 230.066 1070.58 260.274 1062.71C284.44 1056.43 332.102 1051.01 352.911 1049.09C376.63 1046.12 432.258 1040.49 465.017 1041.75C505.965 1043.32 581.821 1041.75 648.278 1041.75C714.736 1041.75 829.526 1037.03 879.201 1026.55C926.191 1020.26 1009.16 992.482 1056.42 975.71C1117.06 953.173 1239.01 900.237 1260.49 886.085C1305.02 861.976 1401.46 807.677 1431 783.357Z" fill="#B50909"/>
<path d="M1481 131.654H1369.31L1379.21 209.761C1382.7 235.858 1381.47 310.431 1379.21 326.921C1376.94 343.41 1369.78 381.161 1366.48 397.976C1358.24 425.639 1340.33 483.351 1334.67 492.897L1307.81 550.935L1268.93 617.651C1256.94 636.024 1229.34 666.468 1217.33 678.943C1205.31 691.419 1115.45 765.931 1104.84 774.068C1096.36 780.576 1029.92 827.384 999.519 849.804L902.793 907.814L814.664 961.528L738 1003.96C820.236 994.741 950.118 997.337 1112.71 926.824C1154.41 908.735 1271.63 863.278 1349.52 810.206C1433.3 753.119 1469.69 723.667 1481 714.446V131.654Z" fill="#690202"/>
<path d="M1431 783.808V1221H1221.75H589.271H-21C-10.2345 1203.16 20.0436 1167.99 40.9018 1151.72C61.76 1135.45 118.338 1101.46 139.869 1094.75C166.783 1086.35 220.551 1069.32 287.163 1055.15C340.452 1043.81 417.022 1040.98 448.646 1040.98H628.296C691.767 1040.8 834.59 1036.47 898.107 1020.51L900.997 1019.78C979.489 1000.07 1058.17 978.749 1107.36 954.381C1115.44 954.381 1256.06 889.825 1296.43 864.633L1431 783.808Z" fill="#9B0A0A"/>
<path opacity="0.8" d="M1364.52 -75C1383.13 10.6448 1351.84 198.316 1339.67 242.462C1325.94 292.276 1311.02 368.158 1293.28 414.267C1283.51 439.673 1245.21 516.017 1234.76 535.592C1224.31 555.168 1206.2 589.329 1191.9 610.094C1167.18 645.982 1112.37 717.424 1098.76 731.138C1080.5 749.539 939.904 874.966 874 926.077L901 913.615L924.5 901.154L952.444 885.897L1058.4 816.825L1105.43 782.242L1139.8 754.51L1213.06 695.458C1248.93 662.397 1324.48 588.054 1339.67 555.168C1357.16 527.544 1394.48 465.773 1403.89 439.673C1410.82 425.97 1425.95 394.127 1431.02 376.379C1436.08 358.631 1450.5 324.524 1454.11 311.691C1460.14 287.33 1468.78 245.525 1470.41 233.183C1475.83 192.075 1482.17 111.109 1480.36 107.847C1479.46 92.1865 1482.17 7.00177 1480.36 -3.32817V-47.1022L1364.52 -75Z" fill="#A00000"/>
</svg>
