<svg width="1240" height="414" viewBox="0 0 1440 450" fill="none" xmlns="http://www.w3.org/2000/svg">
<path d="M-0.0126682 16.0001L-0.0126908 324.568C65.3271 355.701 226.793 408.468 349.938 370.473C473.084 332.477 718.223 256.29 825.4 222.946C873.939 208.624 977.676 178.558 1004.31 172.873C1030.94 167.188 1098.85 156.071 1126.21 154.485C1155.95 154.391 1226.99 155.067 1263.65 160.553C1300.31 166.038 1370.03 189.389 1400.62 203.629L1449.49 231.98L1449.43 214.477C1415.43 184.578 1325.42 129.352 1270.07 120.025C1246.92 116.124 1191.83 108.363 1167.11 107.347C1133.19 105.954 1037.42 106.756 996.385 112.386C963.56 116.891 903.424 125.849 877.458 129.765L565.295 181.759C516.728 187.246 414.239 197.938 392.819 196.805C366.044 195.389 257.743 186.729 214.831 161.86C182.856 146.458 117.114 113.659 109.95 105.68C102.786 97.7013 33.9856 44.0648 -0.0126682 16.0001Z" fill="#690202"/>
<path d="M466.205 164.858C274.163 196.786 108.545 98.3221 22.5 33.5001L65.9612 71.4397L113.506 112.439C125.534 122.736 171.844 158.899 209.585 174.073C231.75 182.986 290.382 197.877 327.431 202.057C357.07 205.402 414.051 208.81 508.859 195.991L795.59 148.014L962.503 120.072C985.186 119.877 1040.58 105.998 1171.96 111.264C1303.34 116.53 1408 183.896 1443.9 216.921L1442.9 100.925L1404.34 76.077L1383.43 66.8324L1360.75 58.1325C1309.8 34.0714 1217.8 20.8972 1201.28 20.7045C1184.77 20.5118 1042.65 18.8538 950.737 45.7836C858.829 72.7133 679.378 129.417 466.205 164.858Z" fill="#720505"/>
<path opacity="0.8" d="M3.02856e-08 203.5C111.015 273.775 374.017 411.164 444.9 410.94C499.122 416.279 568.4 403.94 641.4 376.94C714.4 349.94 1005.4 175.822 1011.9 174.322L1151.9 109.94C1069.9 106.94 936.4 124.621 910.825 128.44C881.723 132.786 812.791 140.431 778.061 145.716L601.835 174.322L510.151 189.638C485.935 192.052 434.882 196.888 424.399 196.921C411.294 196.962 339.808 194.683 312.986 189.258C286.164 183.833 236.089 171.468 228.333 167.486C220.577 163.503 185.394 151.092 166.293 138.63C151.376 130.496 118.317 111.633 105.418 101.255C92.5186 90.8773 51.0749 57.6822 31.9655 42.3819L-2.5 15L3.02856e-08 203.5Z" fill="#AE0000"/>
</svg>
