<svg width="1440" height="632" viewBox="0 0 1440 632" fill="none" xmlns="http://www.w3.org/2000/svg">
<path d="M1010.64 391.586C1211.1 343.068 1401.39 470.918 1492.18 561.536L1444.54 508.166L1392.78 455.62C1380.08 441.199 1318.57 395.172 1278.92 374.249C1255.63 361.962 1194.12 341.789 1155.32 336.466C1124.29 332.209 1064.65 328.313 965.653 348.085L666.363 420.959L492.141 463.399C468.42 464.053 410.651 484.678 273.183 479.376C135.715 474.075 25.4387 380.154 -12.5164 333.856L-10.0493 498.545L30.583 533.189L52.568 545.969L76.396 557.947C129.977 591.268 226.355 608.451 243.629 608.451C260.903 608.451 409.563 608.451 505.355 568.69C601.147 528.929 788.131 445.441 1010.64 391.586Z" fill="#A00000"/>
<path d="M1509.41 588.757L1509.41 146.23C1440.45 103.619 1168.22 46.5522 1040 103.5C911.78 160.448 752.159 258.744 640.571 308.699C590.02 330.217 481.973 375.434 454.196 384.154C426.419 392.875 355.541 410.313 326.929 413.233C295.795 414.091 221.428 414.862 182.951 407.967C144.475 401.072 71.0783 369.617 38.809 350.144L-12.8574 311.082L-12.4851 335.932C23.6459 377.553 118.851 453.772 176.963 465.666C201.268 470.64 259.073 480.317 284.964 481.157C320.489 482.308 420.73 478.835 463.578 469.841C497.857 462.646 560.644 448.461 587.753 442.269L913.577 360.839C969.659 347.165 1071.39 335.272 1093.85 335.272C1152.87 335.272 1226.01 355.309 1280.78 380.551C1316.19 396.866 1365.91 430.237 1391.58 457.76C1409.79 477.296 1473.31 549.739 1509.41 588.757Z" fill="#690202"/>
<path opacity="0.8" d="M1593.09 222.201C1496.13 93.4045 1202.19 15 1129.38 17.0067C1073.59 10.9097 958.755 11.2053 884.336 62.4478C809.918 113.69 692.574 195.917 641.607 239.428L476.894 376.508C517.818 370.753 607.607 355.996 631.002 348.688C654.396 341.381 731.411 323.248 766.994 315.096L947.515 271.253L1041.43 247.842C1066.26 243.919 1118.62 235.998 1129.38 235.701C1142.84 235.33 1216.32 236.776 1243.96 243.648C1271.61 250.521 1323.26 266.449 1331.3 271.78C1339.34 277.111 1375.7 293.461 1395.53 310.265C1411 321.176 1445.29 346.512 1458.72 360.579C1472.15 374.645 1515.31 419.634 1535.2 440.37L1569.52 483.845L1593.09 222.201Z" fill="#AE0000"/>
</svg>
