<svg width="1440" height="567" viewBox="0 0 1440 567" fill="none" xmlns="http://www.w3.org/2000/svg">
<path d="M466.086 351.311C268.116 307.784 80.1825 422.485 -9.47512 503.782L37.5707 455.902L88.6843 408.76C101.233 395.822 161.976 354.528 201.14 335.758C224.142 324.734 284.882 306.636 323.199 301.861C353.853 298.041 412.748 294.546 510.519 312.285L806.097 377.664L978.159 415.739C1001.59 416.326 1058.64 434.829 1194.4 430.073C1330.17 425.317 1439.08 341.055 1476.56 299.519L1474.12 447.27L1433.99 478.351L1412.28 489.817L1388.75 500.562C1335.83 530.457 1244.18 544.993 1223.59 545.872C1203 546.751 1059.71 545.872 965.109 510.2C870.505 474.529 685.839 399.628 466.086 351.311Z" fill="#A00000"/>
<path d="M-26.4921 528.204L-26.4919 131.19C41.6072 92.9615 297.87 32.8604 424.5 83.9512C551.13 135.042 721.366 232.132 831.571 276.949C881.495 296.254 988.202 336.82 1015.63 344.644C1043.07 352.468 1110 370.732 1141.32 370.732C1197.5 370.732 1245.52 372.193 1283.52 366.008C1321.52 359.822 1394 331.602 1425.87 314.132L1476.9 279.087L1476.53 301.381C1440.85 338.722 1346.82 407.101 1289.43 417.772C1265.43 422.235 1208.34 430.917 1182.77 431.67C1147.68 432.703 1048.69 429.587 1006.37 421.518C972.515 415.063 910.506 402.337 883.734 396.782L561.95 323.727C506.563 311.459 406.094 300.789 383.916 300.789C325.626 300.789 253.388 318.765 199.296 341.411C164.333 356.048 115.222 385.987 89.8761 410.679C71.8852 428.207 9.15243 493.199 -26.4921 528.204Z" fill="#690202"/>
<path opacity="0.8" d="M-109.14 199.348C-13.3771 83.7981 276.913 13.4574 348.818 15.2577C403.918 9.78775 517.332 10.053 590.828 56.0252C664.324 101.997 780.212 175.767 830.548 214.803L993.218 337.785C952.802 332.622 864.126 319.383 841.021 312.827C817.917 306.27 741.857 290.003 706.715 282.689L528.433 243.355L435.687 222.352C411.162 218.832 359.453 211.726 348.818 211.46C335.525 211.127 262.964 212.424 235.66 218.59C208.356 224.755 157.342 239.045 149.405 243.828C141.468 248.611 105.561 263.279 85.968 278.355C70.6942 288.143 36.8302 310.874 23.5649 323.494C10.2997 336.114 -32.318 376.476 -51.9687 395.079L-85.8593 434.082L-109.14 199.348Z" fill="#AE0000"/>
</svg>
