<svg width="1440" height="461" viewBox="0 0 1440 461" fill="none" xmlns="http://www.w3.org/2000/svg">
<path d="M454.648 197.354C257.776 237.181 70.8853 132.231 -18.2749 57.844L28.5099 101.654L79.34 144.789C91.8187 156.627 152.225 194.411 191.172 211.585C214.046 221.672 274.449 238.232 312.554 242.601C343.037 246.096 401.606 249.294 498.835 233.063L792.773 173.242L963.881 138.403C987.178 137.866 1043.91 120.936 1178.92 125.288C1313.93 129.64 1422.24 206.739 1459.52 244.744L1457.09 109.552L1417.19 81.1136L1395.6 70.6225L1372.19 60.7902C1319.57 33.4373 1224.92 19.3322 1207.95 19.3322C1190.98 19.3322 1044.98 19.3322 950.903 51.9715C856.823 84.6107 673.182 153.145 454.648 197.354Z" fill="#A00000"/>
<path d="M-35.1974 35.4983L-35.1971 398.763C32.5242 433.742 299.889 480.588 425.817 433.84C551.745 387.092 708.512 306.402 818.105 265.395C867.753 247.731 973.868 210.613 1001.15 203.454C1028.43 196.296 1098.04 181.981 1126.14 179.584C1156.72 178.88 1229.76 178.247 1267.54 183.907C1305.33 189.567 1377.42 215.388 1409.11 231.373L1459.85 263.439L1459.49 243.04C1424 208.873 1330.5 146.306 1273.42 136.543C1249.55 132.459 1192.78 124.516 1167.35 123.826C1132.47 122.881 1034.02 125.732 991.934 133.115C958.268 139.022 896.603 150.665 869.979 155.749L549.98 222.594C494.9 233.819 394.989 243.581 372.934 243.581C314.967 243.581 243.13 227.133 189.339 206.413C154.569 193.02 105.73 165.626 80.5253 143.033C62.6342 126.995 0.249451 67.528 -35.1974 35.4983Z" fill="#690202"/>
</svg>
