<svg width="1440" height="578" viewBox="0 0 1440 578" fill="none" xmlns="http://www.w3.org/2000/svg">
<path d="M968.491 216.216C1160.77 259.68 1343.25 144.919 1430.3 63.5924L1384.62 111.488L1335 158.646C1322.81 171.588 1263.84 212.901 1225.81 231.684C1203.47 242.715 1144.49 260.833 1107.28 265.62C1077.51 269.45 1020.31 272.964 925.351 255.256L638.27 189.972L471.154 151.952C448.403 151.373 392.988 132.887 261.139 137.687C129.29 142.486 23.5475 226.783 -12.8429 268.331L-10.5253 120.579L28.4364 89.4855L49.5192 78.0127L72.3701 67.2595C123.752 37.3484 212.757 22.7827 232.754 21.8971C252.751 21.0114 391.908 21.8446 483.798 57.4859C575.687 93.1273 755.055 167.969 968.491 216.216Z" fill="#A00000"/>
<path d="M1446.81 39.1654L1446.94 436.179C1380.82 474.43 1131.96 534.613 1008.96 483.562C885.967 432.512 720.606 335.477 613.563 290.695C565.071 271.406 461.426 230.874 434.782 223.059C408.137 215.243 343.127 197.001 312.706 197.011C258.149 197.029 211.515 195.583 174.613 201.781C137.711 207.979 67.3229 236.222 36.378 253.702L-13.1656 288.763L-12.8159 266.469C21.8264 229.117 113.119 160.707 168.853 150.018C192.163 145.548 247.603 136.848 272.436 136.086C306.508 135.042 402.655 138.126 443.755 146.182C476.635 152.626 536.86 165.332 562.864 170.879L875.397 243.831C929.192 256.081 1026.77 266.719 1048.31 266.711C1104.92 266.693 1175.07 248.694 1227.59 226.031C1261.54 211.382 1309.23 181.428 1333.84 156.727C1351.3 139.194 1412.21 74.1822 1446.81 39.1654Z" fill="#690202"/>
<path opacity="0.8" d="M1527.5 377.348C1434.53 492.929 1152.63 563.363 1082.8 561.585C1029.29 567.073 919.142 566.844 847.749 520.895C776.357 474.946 663.784 401.214 614.886 362.194L456.864 239.264C496.117 244.414 582.241 257.625 604.682 264.174C627.123 270.723 700.996 286.966 735.127 294.269L908.284 333.546L998.365 354.518C1022.18 358.03 1072.4 365.12 1082.73 365.383C1095.64 365.712 1166.11 364.392 1192.63 358.217C1219.14 352.043 1268.68 337.736 1276.39 332.951C1284.1 328.166 1318.96 313.486 1337.99 298.404C1352.82 288.611 1385.7 265.869 1398.58 253.245C1411.45 240.621 1452.83 200.245 1471.91 181.636L1504.81 142.622L1527.5 377.348Z" fill="#AE0000"/>
</svg>
