<svg width="1440" height="229" viewBox="0 0 1440 229" fill="none" xmlns="http://www.w3.org/2000/svg">
<path d="M-9.21729 3.6156L-19.3415 179.698C45.3589 198.076 210.887 231.019 336.448 210.96C462.01 190.902 711.981 150.659 821.271 133.046C870.738 125.509 976.437 109.71 1003.5 106.805C1030.56 103.899 1099.43 98.403 1127.07 97.825C1157.06 98.1195 1228.64 99.332 1265.39 102.864C1302.15 106.396 1371.55 120.423 1401.85 128.837L1450.05 145.449L1450.65 135.545C1417.49 118.231 1328.83 85.9326 1273.38 80.0085C1250.19 77.5308 1194.94 72.4959 1170.06 71.6325C1135.93 70.4479 1039.35 69.7827 997.776 72.489C964.518 74.654 903.561 79.0198 877.239 80.932L560.611 106.703C511.447 109.24 407.731 114.092 386.181 113.201C359.242 112.087 250.393 105.922 208.067 91.3493C176.41 82.2613 111.367 62.9357 104.444 58.3376C97.5214 53.7394 24.0038 19.8918 -9.21729 3.6156Z" fill="#690202"/>
<path d="M468.787 96.6403C275.19 112.85 98.0788 55.6189 14.7203 15.9457L58.2375 39.1936L105.726 62.1807C117.326 68.4592 174.391 88.9216 211.52 98.4592C233.325 104.061 291.379 113.727 328.285 116.733C357.81 119.138 414.702 121.97 510.152 115.714L799.217 91.3307L967.488 77.129C990.202 77.3352 1046.25 69.8903 1177.53 74.8813C1308.82 79.8723 1417.44 119.028 1451.97 139.128L1455.62 75.6594L1411.64 57.3124L1391.11 51.5316L1368.77 46.0487C1318.8 31.0523 1220.16 26.0768 1203.64 25.7278C1187.12 25.3788 1060.64 24.5261 967.488 39.1936C874.338 53.8611 683.685 78.6475 468.787 96.6403Z" fill="#720505"/>
<path opacity="0.8" d="M-14.5756 123.271C118.475 148.804 325.608 200.249 390.894 205.227C452.746 213.804 558.962 211.848 649.267 187.279C739.571 162.711 827.87 138.605 893.591 123.271L995.98 94.4803L1081.44 67.3496C1041.34 69.4966 929.489 75.3984 905.907 77.7896C881.797 80.2344 807.518 84.114 772.586 87.4187L595.311 105.318L503.076 114.904C478.736 116.404 427.425 119.406 416.901 119.415C403.746 119.426 332.018 117.902 305.166 114.439C278.313 110.976 228.212 103.096 220.479 100.567C212.747 98.0381 177.594 90.145 158.586 82.2381C143.72 77.0744 110.785 65.1017 97.9741 58.5206C85.1635 51.9395 44.002 30.8886 25.0226 21.1858L-7.54133 0.930474L-14.5756 123.271Z" fill="#AE0000"/>
</svg>
