<svg width="1022" height="465" viewBox="0 0 1022 465" fill="none" xmlns="http://www.w3.org/2000/svg">
<path fill-rule="evenodd" clip-rule="evenodd" d="M-179.509 64.102L-161.54 113.145C-143.571 162.187 -107.634 260.272 -21.075 278.229C65.4838 296.187 202.664 234.017 302.722 230.607C402.779 227.197 465.715 282.547 528.651 337.898C591.586 393.248 654.522 448.598 734.331 477.239C814.14 505.881 910.823 507.813 959.165 508.778L1007.51 509.744L845.519 766.153L807.302 749.161C769.084 732.17 692.65 698.187 616.215 664.204C539.78 630.221 463.346 596.238 386.911 562.255C310.477 528.272 234.042 494.289 157.608 460.306C81.173 426.323 4.73838 392.34 -71.6962 358.357C-148.131 324.374 -224.565 290.391 -262.783 273.4L-301 256.408L-179.509 64.102Z" fill="#690202"/>
<path fill-rule="evenodd" clip-rule="evenodd" d="M-147.28 121.527L-132.426 173.969C-117.572 226.41 -87.8651 331.293 -1.63793 346.711C84.5892 362.129 227.336 288.082 328.635 279.643C429.935 271.204 489.786 328.372 549.637 385.54C609.488 442.708 669.339 499.877 748.03 527.223C826.722 554.57 924.253 552.095 973.018 550.858L1021.78 549.62L840.92 835.907L803.459 819.252C765.997 802.596 691.074 769.285 616.151 735.974C541.227 702.663 466.304 669.352 391.381 636.041C316.458 602.73 241.535 569.419 166.612 536.108C91.6885 502.797 16.7653 469.486 -58.1579 436.175C-133.081 402.864 -208.004 369.553 -245.466 352.898L-282.927 336.242L-147.28 121.527Z" fill="#A00000"/>
</svg>
