<svg width="525" height="420" viewBox="0 0 525 420" fill="none" xmlns="http://www.w3.org/2000/svg">
<g clip-path="url(#clip0_114_1090)" filter="url(#filter0_d_114_1090)">
<path d="M443.223 59.997C471.946 123.554 463.903 201.978 426.083 260.08C388.262 318.181 325.259 355.884 259.051 369.591C211.844 379.403 160.94 377.432 117.753 355.171C74.567 332.912 40.6109 288.169 38.0183 238.12C37.0461 219.219 40.899 199.145 53.0339 185.026C72.3945 162.479 105.462 161.693 134.509 162.616C163.556 163.54 196.612 162.841 216.129 140.395C231.085 123.142 233.281 98.1235 241.166 76.3888C254.563 39.4357 286.898 10.5724 324.046 2.40779C344.821 -2.00338 366.365 -0.330858 386.281 7.23916C410.098 16.2807 429.903 34.0862 441.951 57.288C442.406 58.2742 442.863 59.1981 443.223 59.997Z" fill="#EAE7E1"/>
<path d="M520.531 410.401C520.531 410.588 404.895 410.726 262.278 410.726C119.66 410.726 4 410.588 4 410.401C4 410.214 119.612 410.076 262.278 410.076C404.944 410.076 520.531 410.227 520.531 410.401Z" fill="#FAFAFA"/>
<path d="M390.596 208.009C389.101 206.861 387.261 206.311 385.409 206.461C385.409 205.412 385.409 204.775 385.409 204.775H357.082C357.082 204.775 356.194 224.214 370.502 224.9C376.911 225.212 380.572 222.228 382.673 218.471C383.727 218.731 384.806 218.869 385.889 218.883C387.471 218.956 389.032 218.495 390.343 217.572C391.065 216.985 391.636 216.222 392.008 215.351C392.381 214.481 392.543 213.529 392.479 212.578C392.518 211.717 392.369 210.858 392.043 210.068C391.717 209.275 391.222 208.572 390.596 208.009ZM388.65 215.237C387.449 216.173 385.277 216.035 383.849 215.774C384.562 213.706 385.026 211.556 385.23 209.369C386.47 209.22 387.722 209.524 388.77 210.231C389.078 210.527 389.316 210.893 389.465 211.301C389.614 211.706 389.672 212.144 389.634 212.578C389.691 213.071 389.63 213.571 389.459 214.034C389.287 214.497 389.01 214.91 388.65 215.237Z" fill="#FF725E"/>
<path d="M377.09 203.002C377.231 202.783 377.315 202.53 377.33 202.267C377.288 201.891 377.155 201.531 376.945 201.222C376.736 200.913 376.456 200.663 376.13 200.493C375.653 200.252 375.149 200.072 374.629 199.956C373.975 199.809 373.358 199.519 372.818 199.107C372.519 198.836 372.281 198.5 372.121 198.123C371.961 197.744 371.884 197.335 371.893 196.923C371.894 196.014 372.14 195.123 372.601 194.351C373.573 192.716 375.325 191.68 376.562 190.057C377.184 189.168 377.6 188.143 377.777 187.061C377.953 185.977 377.886 184.866 377.582 183.814C377.285 182.671 376.71 181.627 375.913 180.781C375.011 179.955 373.992 179.28 372.889 178.784C371.658 178.256 370.561 177.44 369.684 176.399C369.266 175.815 368.978 175.141 368.844 174.426C368.684 173.675 368.782 172.889 369.12 172.205C369.309 171.851 369.577 171.552 369.9 171.33L370.225 171.893C369.196 172.558 368.386 173.533 367.898 174.686C367.412 175.84 367.273 177.12 367.5 178.359C367.695 179.534 368.252 180.611 369.085 181.43C370.022 182.177 370.851 183.059 371.545 184.051C371.839 184.609 371.98 185.24 371.954 185.874C371.935 186.503 371.774 187.119 371.484 187.672C370.956 188.652 370.206 189.482 369.3 190.094C367.56 191.242 365.771 191.816 364.44 192.865C363.836 193.312 363.335 193.89 362.968 194.557C362.602 195.226 362.378 195.969 362.314 196.736C362.202 197.904 362.397 199.081 362.878 200.143C363.318 201.038 363.946 201.82 364.715 202.428L364.536 202.341C364.371 202.244 364.216 202.137 364.066 202.016C363.48 201.544 363 200.943 362.663 200.256C362.121 199.159 361.883 197.928 361.979 196.698C362.031 195.923 362.231 195.169 362.567 194.477C362.957 193.703 363.506 193.03 364.175 192.504C365.555 191.38 367.392 190.756 368.977 189.658C369.799 189.079 370.482 188.309 370.968 187.409C371.219 186.953 371.35 186.438 371.35 185.912C371.35 185.386 371.219 184.871 370.968 184.414C370.281 183.473 369.473 182.633 368.568 181.917C367.638 181.006 367.025 179.797 366.827 178.483C366.579 177.116 366.734 175.7 367.275 174.425C367.814 173.151 368.713 172.075 369.853 171.343L370.165 171.905C369.929 172.069 369.732 172.287 369.588 172.541C369.368 173.122 369.301 173.753 369.394 174.369C369.487 174.987 369.737 175.566 370.116 176.049C370.939 177.005 371.955 177.754 373.093 178.247C374.251 178.773 375.322 179.489 376.262 180.369C377.126 181.293 377.746 182.432 378.063 183.677C378.374 184.817 378.427 186.016 378.218 187.181C378.01 188.347 377.547 189.445 376.863 190.393C375.505 192.104 373.777 193.103 372.877 194.587C371.977 196.074 371.893 197.947 372.938 198.833C373.982 199.718 375.337 199.695 376.154 200.268C376.504 200.463 376.799 200.752 377.009 201.102C377.221 201.452 377.339 201.853 377.355 202.267C377.342 202.479 377.272 202.682 377.15 202.853C377.15 202.965 377.102 203.002 377.09 203.002Z" fill="#263238"/>
<path d="M287.081 307.246L284.788 410.401H280.42L280.696 307.507L287.081 307.246Z" fill="#263238"/>
<path d="M302.892 306.097L324.161 410.401H329.034L311.329 306.097H302.892Z" fill="#263238"/>
<path d="M263.017 307.244L239.48 410.401H234.606L255.96 306.821L263.017 307.244Z" fill="#263238"/>
<path d="M330.506 193.84C330.506 193.84 357.465 192.241 354.776 224.687C352.087 257.134 350.539 290.042 340.517 301.278C330.494 312.513 229.574 312.9 221.1 303.687C212.626 294.474 237.28 294.873 241.901 294.873C246.522 294.873 275.028 297.67 284.272 272.402C293.513 247.133 291.208 192.241 330.506 193.84Z" fill="#263238"/>
<path d="M332.235 193.914C332.235 193.914 352.844 198.308 350.924 220.743C349.003 243.177 343.602 282.451 333.581 292.464C323.557 302.476 284.369 304.661 263.087 303.287C238.433 301.677 222.878 296.795 222.878 296.795C222.878 296.795 218.377 299.804 219.733 301.79C221.089 303.774 233.116 311.527 291.389 310.23C349.664 308.93 345.619 299.991 348.031 290.254C350.445 280.516 355.533 228.408 354.825 216.959C354.118 205.512 348.572 195.862 332.235 193.914Z" fill="#455A64"/>
<path d="M274.337 98.698C277.579 97.5351 281.101 97.5166 284.355 98.6448C287.61 99.7732 290.416 101.986 292.34 104.94C294.945 109.135 295.558 114.403 298.21 118.56C300.095 121.494 302.878 123.654 305.183 126.251C307.489 128.847 309.372 132.28 308.784 135.763C308.232 139.022 305.58 141.918 306.108 145.189C306.611 148.248 309.708 150.245 310.368 153.291C311.076 156.874 307.764 160.219 304.283 160.782C300.802 161.344 297.345 159.945 294.069 158.596C290.792 157.248 287.311 155.9 283.842 156.549C279.821 157.311 276.736 160.595 273.22 162.791C269.512 164.995 265.267 166.028 261.004 165.764C256.741 165.501 252.645 163.951 249.214 161.306C246.573 159.195 244.257 155.925 244.905 152.567C245.505 149.396 248.505 147.199 249.297 144.09C250.571 139.471 246.898 134.752 247.437 129.971C248.182 123.554 255.839 120.62 258.576 114.828C259.909 112.044 260.029 108.798 261.193 105.939C262.357 103.08 265.43 100.533 268.166 101.757" fill="#263238"/>
<path d="M271.733 157.099C272.129 154.814 271.422 145.201 271.422 145.201C271.422 145.201 263.236 144.127 262.875 135.426C262.516 126.725 263.355 106.713 263.355 106.713L278.442 99.2222L291.647 114.827L291.898 157.011L271.733 157.099Z" fill="#FFBE9D"/>
<path d="M264.429 122.056C264.431 122.269 264.493 122.477 264.609 122.653C264.723 122.829 264.886 122.967 265.077 123.048C265.265 123.129 265.474 123.15 265.675 123.108C265.876 123.067 266.061 122.965 266.207 122.815C266.352 122.665 266.452 122.474 266.495 122.265C266.536 122.057 266.519 121.84 266.443 121.642C266.367 121.444 266.238 121.273 266.068 121.151C265.901 121.029 265.701 120.962 265.497 120.957C265.215 120.957 264.946 121.072 264.746 121.278C264.545 121.484 264.432 121.763 264.429 122.056Z" fill="#263238"/>
<path d="M263.76 120.108C263.891 120.258 264.683 119.571 265.8 119.522C266.917 119.471 267.756 120.071 267.877 119.909C267.997 119.746 267.805 119.571 267.432 119.297C266.946 118.944 266.361 118.769 265.768 118.798C265.174 118.827 264.609 119.06 264.156 119.459C263.807 119.759 263.699 120.046 263.76 120.108Z" fill="#263238"/>
<path d="M276.671 122.056C276.654 122.207 276.669 122.361 276.715 122.506C276.759 122.651 276.834 122.784 276.931 122.898C277.029 123.011 277.149 123.102 277.283 123.164C277.417 123.226 277.562 123.258 277.708 123.258C277.854 123.258 277.999 123.226 278.133 123.164C278.267 123.102 278.388 123.011 278.485 122.898C278.583 122.784 278.657 122.651 278.702 122.506C278.747 122.361 278.762 122.207 278.747 122.056C278.762 121.904 278.747 121.751 278.702 121.606C278.657 121.461 278.583 121.327 278.485 121.214C278.388 121.1 278.267 121.01 278.133 120.948C277.999 120.886 277.854 120.854 277.708 120.854C277.562 120.854 277.417 120.886 277.283 120.948C277.149 121.01 277.029 121.1 276.931 121.214C276.834 121.327 276.759 121.461 276.715 121.606C276.669 121.751 276.654 121.904 276.671 122.056Z" fill="#263238"/>
<path d="M276.197 120.333C276.329 120.483 277.122 119.796 278.237 119.746C279.354 119.696 280.195 120.295 280.313 120.133C280.434 119.971 280.242 119.796 279.87 119.521C279.386 119.17 278.804 118.995 278.214 119.022C277.62 119.052 277.051 119.279 276.593 119.671C276.256 119.983 276.137 120.258 276.197 120.333Z" fill="#263238"/>
<path d="M271.978 130.37C271.386 130.187 270.772 130.09 270.154 130.083C269.865 130.083 269.589 130.008 269.542 129.796C269.515 129.464 269.577 129.131 269.722 128.834C269.973 128.06 270.25 127.236 270.526 126.338C271.279 124.239 271.884 122.086 272.338 119.896C271.43 121.913 270.672 124 270.069 126.138C269.806 127.012 269.542 127.836 269.289 128.635C269.123 129.027 269.08 129.464 269.169 129.883C269.208 129.993 269.271 130.092 269.355 130.17C269.438 130.249 269.541 130.304 269.65 130.333C269.809 130.355 269.97 130.355 270.13 130.333C270.741 130.437 271.364 130.45 271.978 130.37Z" fill="#263238"/>
<path d="M271.427 145.226C275.301 145.095 279.055 143.794 282.23 141.481C282.23 141.481 279.686 147.823 271.523 147.311L271.427 145.226Z" fill="#EB996E"/>
<path d="M272.391 133.441C272.46 133.073 272.614 132.729 272.839 132.437C273.064 132.146 273.355 131.916 273.688 131.768C273.915 131.66 274.163 131.604 274.413 131.604C274.664 131.604 274.911 131.66 275.14 131.768C275.359 131.881 275.539 132.062 275.658 132.285C275.775 132.508 275.825 132.763 275.799 133.017C275.732 133.308 275.581 133.571 275.367 133.772C275.152 133.972 274.885 134.101 274.599 134.14C274.041 134.217 273.473 134.174 272.93 134.015C272.778 133.991 272.632 133.936 272.499 133.853C272.434 133.81 272.382 133.748 272.35 133.675C272.318 133.602 272.307 133.521 272.318 133.441" fill="#EB996E"/>
<path d="M275.172 130.333C275.243 130.333 275.376 130.645 275.339 131.207C275.272 131.959 274.943 132.66 274.416 133.179C273.892 133.695 273.203 133.993 272.483 134.015C271.931 134.015 271.619 133.866 271.643 133.791C271.666 133.716 272.95 133.716 273.983 132.705C275.016 131.693 274.992 130.32 275.172 130.333Z" fill="#263238"/>
<path d="M262.677 105.727C262.977 108.247 264.152 110.567 265.979 112.251C267.805 113.936 270.161 114.869 272.603 114.877L270.334 109.684C272.35 112.118 274.439 114.678 277.212 116.076C279.984 117.474 283.597 117.699 285.95 115.601C286.718 117.736 286.706 120.096 287.415 122.243C288.123 124.39 289.814 133.279 291.927 132.929C294.04 132.58 295.325 123.679 295.828 121.694C296.434 118.871 296.394 115.94 295.713 113.137C295.031 110.333 293.727 107.735 291.903 105.552C289.755 102.946 287.054 100.894 284.013 99.5597C280.972 98.2252 277.673 97.6438 274.379 97.8615C271.442 97.9962 268.61 99.0346 266.241 100.845C264.217 102.524 262.808 104.872 262.244 107.499" fill="#263238"/>
<path d="M251.473 144.927C251.275 144.913 251.08 144.867 250.895 144.789C250.362 144.621 249.847 144.395 249.36 144.115C247.525 143.097 246.01 141.555 244.99 139.671C244.201 138.279 243.723 136.721 243.589 135.111C243.456 133.502 243.672 131.881 244.222 130.37C244.873 128.584 245.921 126.983 247.283 125.701C248.743 124.32 250.534 123.376 252.468 122.967C253.367 122.835 254.203 122.421 254.869 121.781C255.43 121.075 255.754 120.199 255.794 119.284C255.937 117.449 255.241 115.664 255.049 113.866C254.84 112.136 255.181 110.382 256.021 108.873C256.76 107.565 257.837 106.501 259.13 105.801C260.331 105.165 261.399 104.753 262.323 104.328C263.132 104.001 263.905 103.582 264.627 103.08C265.218 102.623 265.747 102.086 266.199 101.482C266.134 101.674 266.041 101.855 265.924 102.019C265.596 102.504 265.191 102.927 264.723 103.267C264.009 103.819 263.235 104.284 262.419 104.653C261.495 105.102 260.402 105.552 259.298 106.188C258.094 106.87 257.101 107.892 256.429 109.135C255.652 110.548 255.349 112.191 255.565 113.804C255.757 115.514 256.49 117.299 256.357 119.347C256.318 120.41 255.937 121.43 255.277 122.243C254.526 122.983 253.575 123.466 252.553 123.629C250.786 124.016 249.14 124.858 247.768 126.077C246.393 127.296 245.336 128.853 244.69 130.607C244.16 132.041 243.941 133.578 244.046 135.11C244.151 136.642 244.58 138.131 245.303 139.471C246.261 141.313 247.679 142.853 249.409 143.928C250.681 144.652 251.473 144.864 251.473 144.927Z" fill="#263238"/>
<path d="M305.8 156.362C305.8 156.362 306.509 155.863 307.746 154.939C309.536 153.706 310.958 151.976 311.85 149.945C312.397 148.535 312.481 146.978 312.091 145.513C311.875 144.72 311.46 144.001 310.891 143.428C310.242 142.837 309.524 142.334 308.755 141.93C307.868 141.435 307.12 140.709 306.587 139.822C306.052 138.935 305.747 137.92 305.704 136.874C305.621 134.615 306.966 132.742 307.446 130.732C307.854 128.711 307.534 126.605 306.545 124.815C305.631 123.109 304.408 121.605 302.944 120.383C300.195 117.986 297.327 116.225 295.346 114.141C293.714 112.589 292.499 110.623 291.818 108.435C291.654 107.837 291.557 107.221 291.53 106.6C291.499 106.385 291.499 106.166 291.53 105.951C291.63 106.766 291.79 107.572 292.009 108.36C292.761 110.459 293.998 112.333 295.611 113.816C297.58 115.776 300.412 117.461 303.268 119.896C304.784 121.159 306.052 122.715 307.001 124.477C308.077 126.404 308.422 128.679 307.973 130.857C307.422 133.042 306.137 134.839 306.233 136.824C306.264 137.794 306.542 138.738 307.044 139.557C307.543 140.376 308.246 141.041 309.078 141.481C309.887 141.914 310.641 142.451 311.323 143.079C311.942 143.732 312.388 144.54 312.618 145.426C313.013 147 312.903 148.666 312.307 150.17C311.802 151.382 311.061 152.474 310.135 153.378C309.437 154.06 308.681 154.674 307.877 155.213C307.23 155.65 306.678 155.962 306.354 156.15C306.178 156.245 305.994 156.317 305.8 156.362Z" fill="#263238"/>
<path d="M262.406 116.138C263.565 115.135 264.382 113.769 264.734 112.243C265.075 110.724 265.256 109.171 265.273 107.611C265.273 107.162 265.273 106.575 264.818 106.463C264.362 106.351 264.074 106.775 263.882 107.162C262.413 110.052 261.895 113.362 262.406 116.588L262.669 116.325" fill="#263238"/>
<path d="M241.46 404.221L241.232 392.986L261.444 392.413L261.937 408.829L260.736 408.953C255.168 409.428 232.386 410.976 228.629 409.902C224.392 408.717 241.46 404.221 241.46 404.221Z" fill="#FF725E"/>
<g opacity="0.5">
<path opacity="0.5" d="M254.596 408.891C254.849 407.105 255.731 405.483 257.069 404.334C258.371 403.185 260.044 402.591 261.751 402.675L261.906 408.541L254.596 408.891Z" fill="white"/>
</g>
<g opacity="0.4">
<path opacity="0.4" d="M233.124 406.731C233.124 406.731 227.122 408.704 227.925 409.715C228.73 410.726 251.776 410.065 261.93 408.84V408.379L235.008 409.39C235.008 409.39 234.3 406.744 233.124 406.731Z" fill="white"/>
</g>
<path d="M262.269 408.354H261.921L260.925 408.441L257.252 408.717C254.154 408.916 249.87 409.14 245.129 409.29C240.388 409.441 236.102 409.452 232.994 409.428C236.102 409.428 240.388 409.341 245.129 409.203C249.87 409.065 254.142 408.866 257.252 408.717L260.925 408.517H261.921L262.269 408.354Z" fill="#263238"/>
<path d="M235.004 409.715C234.819 409.086 234.569 408.479 234.26 407.904C233.89 407.378 233.459 406.899 232.976 406.481C233.591 406.741 234.114 407.189 234.477 407.767C234.839 408.346 235.023 409.026 235.004 409.715Z" fill="#263238"/>
<path d="M240.875 406.394C240.814 406.394 240.514 406.081 240.214 405.608C239.914 405.134 239.698 404.722 239.759 404.671C239.818 404.622 240.106 404.996 240.418 405.47C240.632 405.742 240.787 406.056 240.875 406.394Z" fill="#263238"/>
<path d="M242.489 405.446C242.489 405.508 242.115 405.295 241.768 404.971C241.419 404.646 241.156 404.359 241.192 404.31C241.227 404.259 241.564 404.459 241.924 404.784C242.285 405.108 242.536 405.395 242.489 405.446Z" fill="#263238"/>
<path d="M243.468 403.435C243.133 403.578 242.772 403.638 242.411 403.609C242.058 403.654 241.698 403.624 241.355 403.522C242.042 403.318 242.768 403.288 243.468 403.435Z" fill="#263238"/>
<path d="M243.779 402.025C243.43 402.286 243.01 402.423 242.579 402.412C242.176 402.491 241.759 402.446 241.38 402.286C241.774 402.207 242.176 402.164 242.579 402.161C242.975 402.085 243.377 402.039 243.779 402.025Z" fill="#263238"/>
<path d="M240.135 404.584C239.705 404.659 239.268 404.659 238.838 404.584C238.368 404.535 237.901 404.443 237.446 404.31C237.172 404.234 236.907 404.129 236.654 403.998C236.498 403.906 236.378 403.76 236.317 403.586C236.294 403.486 236.299 403.38 236.331 403.283C236.363 403.186 236.42 403.099 236.498 403.036C236.984 402.77 237.545 402.684 238.084 402.795C238.624 402.908 239.111 403.207 239.463 403.648C239.669 403.907 239.819 404.21 239.906 404.533C239.934 404.657 239.934 404.785 239.906 404.909C239.762 404.495 239.551 404.112 239.282 403.773C238.983 403.421 238.59 403.169 238.154 403.049C237.639 402.885 237.083 402.939 236.606 403.198C236.413 403.373 236.498 403.622 236.725 403.76C236.963 403.885 237.213 403.985 237.47 404.06C237.909 404.204 238.358 404.313 238.814 404.384C239.643 404.559 240.135 404.533 240.135 404.584Z" fill="#263238"/>
<path d="M239.809 404.659C239.632 404.384 239.567 404.047 239.628 403.722C239.661 403.369 239.772 403.026 239.952 402.724C240.057 402.521 240.211 402.348 240.398 402.225C240.584 402.099 240.799 402.026 241.02 402.012C241.154 402.036 241.273 402.115 241.351 402.229C241.43 402.343 241.462 402.484 241.441 402.624C241.41 402.839 241.34 403.047 241.236 403.236C241.07 403.535 240.869 403.812 240.636 404.06C240.447 404.311 240.199 404.508 239.917 404.633C239.917 404.633 240.168 404.384 240.516 403.947C240.711 403.689 240.883 403.413 241.032 403.123C241.201 402.824 241.308 402.312 241.032 402.263C240.757 402.212 240.385 402.586 240.193 402.862C240.021 403.129 239.902 403.43 239.844 403.747C239.798 404.048 239.786 404.354 239.809 404.659Z" fill="#263238"/>
<path d="M261.641 402.611C261.641 402.611 261.064 402.611 260.153 402.711C258.961 402.877 257.841 403.392 256.923 404.197C256.004 405.002 255.326 406.064 254.966 407.256C254.691 408.167 254.666 408.766 254.631 408.766C254.595 408.766 254.631 408.617 254.631 408.341C254.653 407.956 254.717 407.576 254.823 407.205C255.151 405.959 255.833 404.845 256.779 404.009C257.735 403.183 258.905 402.67 260.14 402.537C260.511 402.492 260.885 402.492 261.256 402.537C261.387 402.541 261.516 402.567 261.641 402.611Z" fill="#263238"/>
<path d="M259.315 393.923C259.499 395.355 259.595 396.797 259.603 398.242C259.689 399.681 259.689 401.123 259.603 402.562C259.426 401.133 259.33 399.695 259.315 398.255C259.237 396.811 259.237 395.365 259.315 393.923Z" fill="#263238"/>
<path d="M252.003 406.905C251.046 407.178 250.056 407.31 249.063 407.292C248.073 407.376 247.076 407.325 246.098 407.143C246.098 407.069 247.431 407.143 249.051 407.043C250.672 406.944 251.993 406.831 252.003 406.905Z" fill="#263238"/>
<path d="M255.966 406.793C255.966 406.793 255.87 407.081 255.739 407.405C255.606 407.73 255.547 408.005 255.474 408.005C255.402 408.005 255.366 407.668 255.474 407.305C255.582 406.944 255.919 406.744 255.966 406.793Z" fill="#263238"/>
<path d="M257.47 404.822C257.47 404.822 257.398 405.083 257.194 405.308C256.99 405.533 256.786 405.682 256.738 405.633C256.69 405.582 256.81 405.37 257.014 405.132C257.218 404.896 257.361 404.771 257.47 404.822Z" fill="#263238"/>
<path d="M259.519 403.872C259.519 403.947 259.243 403.947 258.943 404.059C258.643 404.172 258.439 404.359 258.39 404.31C258.343 404.259 258.498 403.96 258.859 403.822C259.219 403.685 259.543 403.809 259.519 403.872Z" fill="#263238"/>
<path d="M261.062 403.41C261.062 403.473 260.978 403.586 260.811 403.66C260.642 403.735 260.486 403.735 260.462 403.66C260.437 403.586 260.546 403.486 260.715 403.41C260.882 403.335 261.062 403.348 261.062 403.41Z" fill="#263238"/>
<path d="M192.651 344.161L197.331 334.048L215.612 343.061L208.903 357.931L207.702 357.443C202.528 355.26 181.535 345.909 178.654 343.187C175.463 340.154 192.651 344.161 192.651 344.161Z" fill="#FF725E"/>
<g opacity="0.5">
<path opacity="0.5" d="M202.345 354.51C203.346 353.043 204.835 352.011 206.521 351.613C208.183 351.209 209.931 351.468 211.419 352.338L209.018 357.656L202.345 354.51Z" fill="white"/>
</g>
<g opacity="0.4">
<path opacity="0.4" d="M184.119 342.475C184.119 342.475 177.938 341.426 178.19 342.687C178.441 343.949 199.303 354.223 208.893 357.919L209.061 357.481L184.624 345.709C184.624 345.709 185.163 343.05 184.119 342.475Z" fill="white"/>
</g>
<path d="M209.347 357.619C209.235 357.599 209.125 357.56 209.023 357.507L208.086 357.118L204.653 355.634C201.797 354.385 197.884 352.537 193.586 350.428C189.29 348.317 185.462 346.333 182.713 344.847L179.448 343.074L178.572 342.575L178.272 342.375L178.595 342.526L179.495 342.974L182.785 344.686C185.57 346.121 189.41 348.092 193.695 350.203C197.98 352.312 201.881 354.147 204.727 355.459L208.075 357.019L208.986 357.456L209.347 357.619Z" fill="#263238"/>
<path d="M184.488 346.021C184.602 345.38 184.646 344.725 184.62 344.074C184.508 343.427 184.329 342.797 184.092 342.188C184.553 342.694 184.825 343.353 184.86 344.049C184.977 344.732 184.844 345.435 184.488 346.021Z" fill="#263238"/>
<path d="M191.172 345.833C191.1 345.833 190.992 345.384 190.932 344.822C190.872 344.261 190.859 343.786 190.932 343.774C191.079 344.09 191.161 344.434 191.172 344.785C191.243 345.359 191.243 345.822 191.172 345.833Z" fill="#263238"/>
<path d="M193.026 345.746C192.966 345.746 192.774 345.433 192.582 344.985C192.39 344.535 192.305 344.148 192.378 344.123C192.45 344.098 192.63 344.435 192.809 344.885C192.989 345.334 193.085 345.722 193.026 345.746Z" fill="#263238"/>
<path d="M194.778 344.41C194.423 344.378 194.079 344.262 193.771 344.074C193.428 343.955 193.117 343.759 192.858 343.499C193.215 343.532 193.559 343.648 193.867 343.836C194.406 344.098 194.814 344.348 194.778 344.41Z" fill="#263238"/>
<path d="M195.674 343.312C195.261 343.326 194.849 343.255 194.464 343.101C194.079 342.946 193.727 342.713 193.43 342.413C194.176 342.716 194.924 343.015 195.674 343.312Z" fill="#263238"/>
<path d="M191.31 343.874C190.879 343.754 190.474 343.554 190.11 343.286C189.709 343.023 189.331 342.722 188.981 342.388C188.772 342.185 188.579 341.963 188.405 341.725C188.306 341.572 188.268 341.385 188.297 341.203C188.317 341.101 188.364 341.009 188.435 340.936C188.506 340.865 188.595 340.819 188.693 340.802C189.051 340.795 189.406 340.871 189.73 341.027C190.056 341.18 190.344 341.407 190.574 341.692C190.805 341.977 190.971 342.312 191.06 342.671C191.15 343.033 191.163 343.408 191.094 343.774C191.094 343.998 190.986 344.123 190.974 344.11C191.024 343.694 191.004 343.272 190.914 342.862C190.792 342.412 190.552 342.004 190.218 341.689C190.029 341.494 189.804 341.344 189.555 341.242C189.308 341.141 189.043 341.093 188.778 341.103C188.525 341.103 188.489 341.415 188.646 341.638C188.798 341.863 188.97 342.072 189.162 342.263C189.494 342.599 189.852 342.908 190.23 343.186C190.878 343.611 191.335 343.836 191.31 343.874Z" fill="#263238"/>
<path d="M190.978 343.786C190.945 343.457 191.03 343.128 191.219 342.862C191.406 342.564 191.658 342.312 191.95 342.126C192.133 341.993 192.343 341.912 192.564 341.887C192.785 341.863 193.008 341.898 193.212 341.989C193.318 342.076 193.388 342.201 193.41 342.34C193.43 342.48 193.398 342.622 193.32 342.738C193.203 342.914 193.052 343.063 192.875 343.174C192.596 343.372 192.293 343.53 191.975 343.649C191.694 343.773 191.391 343.828 191.086 343.811C191.086 343.811 191.411 343.711 191.915 343.473C192.206 343.342 192.483 343.179 192.742 342.987C193.02 342.813 193.343 342.401 193.067 342.201C192.899 342.145 192.723 342.13 192.549 342.153C192.374 342.177 192.208 342.241 192.058 342.339C191.792 342.499 191.556 342.711 191.362 342.962C191.205 343.22 191.076 343.497 190.978 343.786Z" fill="#263238"/>
<path d="M211.34 352.238C211.34 352.238 210.848 351.926 209.972 351.626C208.84 351.219 207.62 351.154 206.453 351.439C205.287 351.724 204.222 352.347 203.383 353.236C202.722 353.911 202.446 354.485 202.409 354.423C202.449 354.284 202.51 354.154 202.59 354.036C202.779 353.705 203 353.396 203.25 353.113C204.088 352.157 205.184 351.487 206.395 351.19C207.604 350.894 208.872 350.986 210.031 351.452C210.377 351.59 210.706 351.766 211.016 351.976C211.244 352.125 211.352 352.225 211.34 352.238Z" fill="#263238"/>
<path d="M213.056 343.399C212.591 344.758 212.05 346.088 211.436 347.381C210.895 348.707 210.283 350 209.599 351.252C210.063 349.893 210.604 348.563 211.22 347.27C211.753 345.941 212.367 344.647 213.056 343.399Z" fill="#263238"/>
<path d="M200.878 351.526C199.909 351.309 198.974 350.961 198.093 350.49C197.174 350.092 196.307 349.576 195.512 348.954C195.512 348.893 196.713 349.553 198.189 350.265C199.665 350.976 200.901 351.464 200.878 351.526Z" fill="#263238"/>
<path d="M204.455 353.287C204.455 353.361 204.241 353.499 203.988 353.724C203.736 353.948 203.556 354.173 203.495 354.136C203.436 354.098 203.496 353.786 203.832 353.536C204.167 353.287 204.445 353.223 204.455 353.287Z" fill="#263238"/>
<path d="M206.61 352.2C206.61 352.276 206.418 352.412 206.142 352.512C205.866 352.612 205.613 352.663 205.59 352.588C205.566 352.512 205.782 352.388 206.058 352.276C206.334 352.163 206.587 352.138 206.61 352.2Z" fill="#263238"/>
<path d="M208.903 352.363C208.903 352.363 208.615 352.289 208.302 352.263C207.99 352.238 207.726 352.263 207.702 352.263C207.678 352.263 207.943 352.013 208.339 352.064C208.735 352.113 208.95 352.312 208.903 352.363Z" fill="#263238"/>
<path d="M210.45 352.662C210.45 352.662 210.295 352.775 210.114 352.762C209.934 352.75 209.791 352.675 209.801 352.612C209.814 352.55 209.958 352.488 210.126 352.501C210.295 352.512 210.45 352.588 210.45 352.662Z" fill="#263238"/>
<path d="M325.887 197.235L321.589 174.764C318.469 156.462 293.743 155.213 293.743 155.213L274.274 154.876C274.274 154.876 259.871 152.866 251.001 163.279C241.818 174.052 230.524 186.798 230.524 186.798L239.141 209.358L259.546 191.879C257.84 194.993 256.9 198.497 256.81 202.08C256.81 208.058 262.811 210.817 262.811 210.817L264.671 228.958L258.67 258.332L322.058 255.685C320.989 245.832 317.783 236.361 312.684 227.983L313.884 197.235H325.887Z" fill="#FF725E"/>
<path d="M298.722 172.105C298.893 172.566 299.006 173.049 299.059 173.541C299.263 174.601 299.504 175.913 299.802 177.472C300.451 180.942 301.291 185.462 302.203 190.456C303.116 195.45 303.933 200.143 304.437 203.49C304.701 205.162 304.88 206.523 304.988 207.459C305.075 207.944 305.103 208.44 305.072 208.933C304.914 208.467 304.806 207.987 304.748 207.497C304.544 206.436 304.292 205.125 304.004 203.564C303.355 200.094 302.516 195.575 301.603 190.582C300.691 185.587 299.876 180.906 299.371 177.548C299.108 175.875 298.926 174.526 298.818 173.577C298.74 173.091 298.708 172.598 298.722 172.105Z" fill="#263238"/>
<path d="M326.255 196.061C322.36 196.408 318.449 196.533 314.541 196.435C310.633 196.556 306.724 196.461 302.827 196.148C306.722 195.809 310.633 195.689 314.541 195.787C318.447 195.667 322.358 195.759 326.255 196.061Z" fill="#263238"/>
<path d="M328.666 216.385C327.467 205.624 325.75 196.411 325.75 196.411H303.305C303.305 196.411 306.088 210.144 305.476 213.264C304.925 216.024 261.438 217.846 250.108 218.033C249.424 217.509 248.452 218.395 247.574 217.596C246.802 216.881 246.148 216.038 245.642 215.1C244.974 213.961 244.453 212.735 244.095 211.454C244.052 211.215 243.942 210.993 243.781 210.817C243.618 210.641 243.41 210.518 243.182 210.464C242.953 210.41 242.714 210.426 242.495 210.511C242.275 210.595 242.083 210.746 241.945 210.942C241.489 211.953 242.006 215.313 244.154 218.558C246.302 221.803 240.662 220.119 238.596 219.544C236.532 218.97 230.051 217.509 229.391 218.046C228.407 218.832 229.019 220.093 231.094 220.618C233.171 221.142 239.305 223.114 238.969 224.362C238.633 225.611 228.166 222.402 228.166 222.402C228.166 222.402 226.03 221.367 225.597 222.678C224.83 225.05 236.197 227.446 237.289 227.671C238.045 227.822 237.72 229.081 236.916 228.92C236.113 228.757 226.522 225.586 225.718 227.996C225.093 229.844 235.055 230.069 236.701 231.891C238.345 233.713 229.162 230.905 228.634 232.69C228.442 233.365 232.235 233.664 237.757 234.475C243.401 235.035 249.072 235.244 254.741 235.1C267.476 235.824 312.51 236.797 322.125 236.085C333.311 235.2 329.098 220.131 328.666 216.385Z" fill="#FFBE9D"/>
<path d="M257.346 197.873C257.521 196.844 257.777 195.833 258.114 194.851C258.379 193.914 258.702 192.816 259.11 191.605C259.315 191.005 259.543 190.357 259.794 189.72C259.939 189.369 260.119 189.07 260.203 188.783C260.299 188.469 260.338 188.138 260.323 187.81C260.264 187.113 260.163 186.421 260.023 185.738C259.903 185.062 259.782 184.414 259.663 183.777C259.472 182.529 259.278 181.456 259.11 180.432C258.888 179.412 258.768 178.369 258.751 177.323C259.118 178.298 259.385 179.31 259.543 180.344C259.759 181.356 259.986 182.467 260.227 183.652L260.623 185.625C260.786 186.338 260.894 187.065 260.948 187.798C260.968 188.198 260.914 188.601 260.791 188.983C260.666 189.32 260.521 189.65 260.36 189.97C260.107 190.593 259.868 191.217 259.651 191.818C259.255 192.952 258.871 194.014 258.535 194.989C258.256 195.996 257.857 196.966 257.346 197.873Z" fill="#263238"/>
<path d="M283.517 112.767C285.245 115.089 287.118 117.761 286.746 120.67C286.446 123.167 284.489 125.476 284.814 128.023C285.198 130.957 288.414 132.879 288.63 135.838C288.763 138.335 286.734 140.182 285.306 142.08C284.258 143.483 283.485 145.087 283.034 146.801C282.583 148.515 282.462 150.305 282.676 152.067C282.914 153.82 283.53 155.495 284.48 156.963C285.431 158.432 286.689 159.656 288.163 160.544C289.656 161.403 291.336 161.845 293.043 161.827C294.747 161.81 296.42 161.334 297.896 160.444C300.499 158.557 302.394 155.791 303.262 152.617C304.606 148.597 304.966 143.878 302.674 140.332C301.737 138.909 300.381 137.686 300.081 135.988C299.697 133.84 301.161 131.818 301.39 129.646C301.702 126.737 299.769 124.078 297.633 122.155C295.495 120.233 292.975 118.71 291.379 116.3" fill="#263238"/>
<g opacity="0.3">
<path opacity="0.3" d="M299.475 178.184C300.255 190.669 300.675 202.216 300.963 214.738C302.566 214.666 304.122 214.158 305.478 213.265C306.088 207.922 302.2 191.654 299.475 178.184Z" fill="black"/>
</g>
<path d="M270.22 172.428C270.046 171.476 270.142 170.492 270.496 169.595C270.904 168.072 271.541 166.962 271.696 167.036C271.644 167.976 271.442 168.9 271.096 169.769C270.941 170.7 270.645 171.597 270.22 172.428Z" fill="#FAFAFA"/>
<path d="M257.464 172.392C257.368 172.541 256.516 172.105 255.687 171.281C254.858 170.457 254.378 169.595 254.487 169.495C254.595 169.395 255.291 170.032 256.083 170.806C256.875 171.581 257.547 172.241 257.464 172.392Z" fill="#FAFAFA"/>
<path d="M245.28 182.754C245.28 182.754 245.172 182.641 245.1 182.416H245.376C245.563 183.435 245.563 184.481 245.376 185.5C245.304 186.666 244.885 187.779 244.177 188.683C244.317 187.571 244.53 186.47 244.812 185.387C245.028 184.139 245.076 182.966 245.149 182.429H245.425C245.353 182.679 245.329 182.741 245.28 182.754Z" fill="#FAFAFA"/>
<path d="M244.751 195.713C243.834 195.673 242.938 195.426 242.123 194.989C240.731 194.426 239.65 193.84 239.722 193.664C240.642 193.702 241.544 193.949 242.362 194.388C243.73 194.951 244.811 195.537 244.751 195.713Z" fill="#FAFAFA"/>
<path d="M255.064 188.534C254.896 188.534 254.921 187.409 255.317 186.124C255.713 184.839 256.264 183.915 256.42 183.99C256.577 184.064 256.277 185.075 255.905 186.311C255.532 187.547 255.184 188.558 255.064 188.534Z" fill="#FAFAFA"/>
<path d="M265.867 160.119C265.867 160.295 264.967 160.482 263.838 160.544C262.711 160.607 261.798 160.544 261.786 160.32C261.774 160.095 262.686 159.945 263.815 159.896C264.943 159.845 265.867 159.932 265.867 160.119Z" fill="#FAFAFA"/>
<path d="M268.061 184.501C267.953 184.627 266.981 183.877 266.334 182.503C265.849 181.72 265.677 180.771 265.854 179.857C266.033 179.857 266.285 180.968 266.885 182.216C267.485 183.465 268.194 184.364 268.061 184.501Z" fill="#FAFAFA"/>
<path d="M289.381 179.271C289.502 179.396 288.746 180.394 287.605 181.418C286.465 182.441 285.397 183.066 285.301 182.915C285.205 182.766 286.081 181.917 287.197 180.919C288.313 179.92 289.261 179.145 289.381 179.271Z" fill="#FAFAFA"/>
<path d="M278.843 175.824C278.939 175.975 278.279 176.661 277.356 177.372C276.431 178.084 275.59 178.559 275.494 178.409C275.399 178.26 276.06 177.572 276.983 176.86C277.908 176.149 278.737 175.688 278.843 175.824Z" fill="#FAFAFA"/>
<path d="M284.014 166.862C283.039 166.649 282.149 166.136 281.458 165.388C280.259 164.277 279.526 163.079 279.669 162.979C279.814 162.879 280.677 163.84 281.866 164.889C283.054 165.938 284.099 166.698 284.014 166.862Z" fill="#FAFAFA"/>
<path d="M296.154 163.366C296.249 163.504 295.576 164.226 294.628 164.963C293.681 165.7 292.828 166.212 292.719 166.063C292.611 165.912 293.297 165.201 294.245 164.451C295.192 163.703 296.045 163.215 296.154 163.366Z" fill="#FAFAFA"/>
<path d="M306.285 168.359C306.27 167.458 306.399 166.557 306.669 165.7C306.945 164.265 307.124 163.079 307.306 163.092C307.571 163.981 307.571 164.935 307.306 165.825C307.006 167.323 306.44 168.423 306.285 168.359Z" fill="#FAFAFA"/>
<path d="M308.069 180.382C307.949 180.507 306.869 179.67 305.668 178.496C304.467 177.323 303.544 176.274 303.663 176.149C303.783 176.024 304.864 176.848 306.064 178.022C307.265 179.195 308.189 180.244 308.069 180.382Z" fill="#FAFAFA"/>
<path d="M316.281 175.325C316.124 175.251 316.436 174.076 316.977 172.829C317.516 171.581 318.092 170.481 318.249 170.557C318.205 171.433 317.967 172.289 317.553 173.053C317 174.376 316.424 175.401 316.281 175.325Z" fill="#FAFAFA"/>
<path d="M316.698 189.77C316.904 188.725 317.312 187.736 317.899 186.861C318.303 185.891 318.886 185.013 319.616 184.277C319.412 185.318 319.003 186.303 318.415 187.173C318.013 188.148 317.43 189.03 316.698 189.77Z" fill="#FAFAFA"/>
<path d="M308.608 191.979C308.464 192.092 307.649 191.193 306.76 189.97C305.872 188.747 305.284 187.685 305.415 187.573C305.548 187.46 306.387 188.358 307.265 189.582C308.141 190.805 308.741 191.867 308.608 191.979Z" fill="#FAFAFA"/>
<path d="M293.34 198.159C293.629 196.851 294.19 195.622 294.983 194.564C295.611 193.393 296.481 192.384 297.529 191.605C296.969 192.781 296.292 193.894 295.512 194.925C294.895 196.077 294.167 197.161 293.34 198.159Z" fill="#FAFAFA"/>
<path d="M282.372 197.01C281.637 196.169 281.063 195.19 280.679 194.126C280.112 193.152 279.725 192.077 279.538 190.956C280.844 192.768 281.806 194.824 282.372 197.01Z" fill="#FAFAFA"/>
<path d="M268.559 193.664C267.871 194.708 267.019 195.624 266.038 196.374C265.195 197.286 264.21 198.042 263.122 198.608C263.001 198.472 264.13 197.259 265.631 195.887C266.475 194.976 267.467 194.223 268.559 193.664Z" fill="#FAFAFA"/>
<path d="M273.8 209.271C273.656 209.382 272.671 208.222 271.399 206.873C270.127 205.525 269 204.476 269.108 204.376C270.171 204.81 271.117 205.502 271.868 206.399C272.729 207.176 273.392 208.163 273.8 209.271Z" fill="#FAFAFA"/>
<path d="M283.473 209.744C283.542 208.602 283.911 207.501 284.541 206.561C285.442 204.938 286.532 203.889 286.653 204.064C286.222 205.063 285.692 206.014 285.068 206.898C284.633 207.901 284.098 208.855 283.473 209.744Z" fill="#FAFAFA"/>
<path d="M297.075 211.393C295.977 210.852 294.974 210.122 294.11 209.233C293.114 208.501 292.243 207.602 291.531 206.574C292.634 207.112 293.64 207.841 294.507 208.734C295.5 209.464 296.368 210.363 297.075 211.393Z" fill="#FAFAFA"/>
<path d="M295.87 174.214C294.93 174.057 294.051 173.623 293.338 172.965C292.066 172.005 291.286 170.943 291.406 170.818C291.525 170.693 292.486 171.517 293.71 172.441C294.935 173.365 295.87 174.053 295.87 174.214Z" fill="#FAFAFA"/>
<path d="M276.227 238.195C276.299 238.371 275.327 238.908 274.247 239.743C273.167 240.58 272.362 241.367 272.23 241.255C272.099 241.142 272.711 240.106 273.875 239.218C275.039 238.333 276.179 238.033 276.227 238.195Z" fill="#FAFAFA"/>
<path d="M290.744 244.362C289.697 242.676 289.02 240.771 288.763 238.782C289.805 240.472 290.48 242.375 290.744 244.362Z" fill="#FAFAFA"/>
<path d="M305.394 238.969C305.526 239.095 304.769 240.118 303.725 241.254C302.68 242.391 301.733 243.215 301.612 243.089C301.492 242.964 302.237 241.941 303.281 240.804C304.326 239.668 305.273 238.857 305.394 238.969Z" fill="#FAFAFA"/>
<path d="M316.284 247.184C316.151 247.322 315.179 246.522 313.74 246.235C312.298 245.948 311.11 246.235 311.051 246.073C311.453 245.771 311.917 245.569 312.406 245.487C312.897 245.405 313.398 245.443 313.871 245.598C315.455 245.935 316.368 247.084 316.284 247.184Z" fill="#FAFAFA"/>
<path d="M322.197 252.74C322.197 252.74 239.305 234.675 231.276 238.632C223.245 242.59 186.24 337.731 186.24 337.731L216.043 351.064L248.103 270.217C248.103 270.217 306.137 292.265 316.279 290.042C326.421 287.82 322.197 252.74 322.197 252.74Z" fill="#455A64"/>
<path d="M285.146 257.807C283.885 258.245 235.933 278.756 232.549 285.335C229.164 291.915 237.47 401.362 237.47 401.362H264.74L263.059 304.099L316.281 290.042L285.146 257.807Z" fill="#455A64"/>
<path d="M316.557 290.305C316.295 290.294 316.033 290.26 315.777 290.205L313.543 289.793C311.611 289.417 308.814 288.844 305.369 288.082C298.492 286.571 289.01 284.337 278.688 281.203C273.526 279.655 268.652 278.032 264.284 276.46C259.915 274.887 255.966 273.313 252.738 271.877C251.104 271.191 249.652 270.505 248.38 269.905C247.108 269.306 245.979 268.794 245.127 268.32L243.11 267.258C242.865 267.147 242.632 267.009 242.414 266.846C242.67 266.925 242.918 267.025 243.159 267.146L245.236 268.095C246.124 268.52 247.227 269.019 248.511 269.581C249.796 270.142 251.261 270.828 252.893 271.453C256.146 272.839 260.095 274.3 264.476 275.898C268.856 277.495 273.742 279.032 278.88 280.578C289.189 283.662 298.635 286.009 305.49 287.633L313.616 289.543L315.824 290.067C316.075 290.119 316.32 290.2 316.557 290.305Z" fill="#263238"/>
<path d="M232.56 310.478C232.426 309.943 232.341 309.396 232.307 308.843C232.188 307.658 232.031 306.146 231.851 304.349C231.672 302.551 231.48 300.167 231.263 297.695C230.896 294.957 230.896 292.181 231.263 289.443C231.795 286.676 233.192 284.169 235.237 282.315C236.862 280.807 238.706 279.572 240.697 278.656C242.018 278.032 243.368 277.477 244.742 276.996C245.239 276.79 245.754 276.634 246.279 276.534C246.279 276.647 244.166 277.433 240.889 279.032C238.969 279.971 237.196 281.209 235.633 282.702C233.707 284.494 232.389 286.884 231.876 289.517C231.539 292.198 231.539 294.914 231.876 297.596C232.056 300.091 232.211 302.327 232.344 304.262C232.476 306.197 232.536 307.582 232.595 308.769C232.645 309.338 232.633 309.911 232.56 310.478Z" fill="#263238"/>
<path d="M256.484 301.079C258.786 301.662 260.972 302.663 262.941 304.037C260.64 303.448 258.454 302.446 256.484 301.079Z" fill="#263238"/>
<path d="M258.9 298.082C259.677 299.107 260.402 300.174 261.073 301.278C262.272 302.988 263.556 304.175 263.472 304.324C262.298 303.731 261.304 302.811 260.603 301.665C259.721 300.662 259.13 299.419 258.9 298.082Z" fill="#263238"/>
<path d="M269.367 302.527C269.367 302.527 269.283 302.763 268.946 302.975C268.459 303.245 267.913 303.378 267.362 303.362C266.605 303.335 265.848 303.356 265.093 303.425C264.69 303.487 264.322 303.709 264.071 304.043C263.818 304.378 263.699 304.799 263.737 305.222C263.829 307.755 263.718 310.288 263.401 312.8C263.093 310.276 262.997 307.728 263.113 305.186C263.119 304.606 263.3 304.042 263.629 303.574C263.983 303.161 264.469 302.895 264.997 302.826C265.799 302.78 266.602 302.806 267.398 302.901C268.075 302.953 268.751 302.823 269.367 302.527Z" fill="#263238"/>
<path opacity="0.3" d="M262.822 238.071L319.319 242.79L316.907 236.211L263.373 235.412L262.822 238.071Z" fill="black"/>
<path d="M415.737 225.174H82.67V234.412H100.482L91.3001 410.114L96.3654 410.401L105.572 234.412H397.578L405.403 410.265H410.493L402.654 234.412H415.737V225.174Z" fill="#263238"/>
<path d="M179.812 170.544L198.285 226.673H281.921L281.298 223.789L247.484 222.691L231.905 170.506L179.812 170.544Z" fill="#263238"/>
<path d="M216.877 196.898C217.43 199.208 216.48 201.455 214.765 201.891C213.048 202.328 211.163 200.893 210.647 198.584C210.132 196.274 211.043 194.039 212.76 193.589C214.477 193.141 216.325 194.6 216.877 196.898Z" fill="white"/>
</g>
<defs>
<filter id="filter0_d_114_1090" x="0" y="0" width="526" height="420" filterUnits="userSpaceOnUse" color-interpolation-filters="sRGB">
<feFlood flood-opacity="0" result="BackgroundImageFix"/>
<feColorMatrix in="SourceAlpha" type="matrix" values="0 0 0 0 0 0 0 0 0 0 0 0 0 0 0 0 0 0 127 0" result="hardAlpha"/>
<feOffset dy="4"/>
<feGaussianBlur stdDeviation="2"/>
<feComposite in2="hardAlpha" operator="out"/>
<feColorMatrix type="matrix" values="0 0 0 0 0 0 0 0 0 0 0 0 0 0 0 0 0 0 0.25 0"/>
<feBlend mode="normal" in2="BackgroundImageFix" result="effect1_dropShadow_114_1090"/>
<feBlend mode="normal" in="SourceGraphic" in2="effect1_dropShadow_114_1090" result="shape"/>
</filter>
<clipPath id="clip0_114_1090">
<rect width="518" height="412" fill="white" transform="translate(4)"/>
</clipPath>
</defs>
</svg>
