<svg width="83" height="83" viewBox="0 0 83 83" fill="none" xmlns="http://www.w3.org/2000/svg">
<path d="M41.4284 43.8732L23.317 61.9845C22.9948 62.3067 22.5989 62.4794 22.1294 62.5024C21.6598 62.5254 21.241 62.3528 20.8727 61.9845C20.5044 61.6163 20.3203 61.2089 20.3203 60.7624C20.3203 60.3159 20.5044 59.9085 20.8727 59.5402L38.9841 41.4289L20.8727 23.3175C20.5505 22.9953 20.3779 22.5994 20.3548 22.1299C20.3318 21.6603 20.5044 21.2414 20.8727 20.8732C21.241 20.5049 21.6483 20.3208 22.0949 20.3208C22.5414 20.3208 22.9487 20.5049 23.317 20.8732L41.4284 38.9845L59.5397 20.8732C59.8619 20.551 60.259 20.3783 60.7308 20.3553C61.198 20.3323 61.6158 20.5049 61.984 20.8732C62.3523 21.2414 62.5364 21.6488 62.5364 22.0953C62.5364 22.5419 62.3523 22.9492 61.984 23.3175L43.8727 41.4289L61.984 59.5402C62.3063 59.8624 62.4789 60.2595 62.5019 60.7313C62.5249 61.1985 62.3523 61.6163 61.984 61.9845C61.6158 62.3528 61.2084 62.5369 60.7619 62.5369C60.3154 62.5369 59.908 62.3528 59.5397 61.9845L41.4284 43.8732Z" fill="white"/>
</svg>
