<svg width="63" height="63" viewBox="0 0 63 63" fill="none" xmlns="http://www.w3.org/2000/svg">
<path fill-rule="evenodd" clip-rule="evenodd" d="M59.0626 31.5C59.0626 30.9778 58.8552 30.4771 58.486 30.1078C58.1168 29.7386 57.616 29.5312 57.0939 29.5312L10.6589 29.5312L23.0502 17.1438C23.4199 16.7742 23.6276 16.2728 23.6276 15.75C23.6276 15.2272 23.4199 14.7258 23.0502 14.3561C22.6805 13.9864 22.1792 13.7787 21.6564 13.7787C21.1335 13.7787 20.6322 13.9864 20.2625 14.3561L4.51248 30.1061C4.32913 30.289 4.18367 30.5062 4.08442 30.7454C3.98517 30.9846 3.93408 31.241 3.93408 31.5C3.93408 31.7589 3.98517 32.0153 4.08442 32.2545C4.18367 32.4937 4.32913 32.711 4.51248 32.8938L20.2625 48.6438C20.4455 48.8269 20.6628 48.9721 20.902 49.0711C21.1412 49.1702 21.3975 49.2212 21.6564 49.2212C22.1792 49.2212 22.6805 49.0135 23.0502 48.6438C23.4199 48.2742 23.6276 47.7728 23.6276 47.25C23.6276 46.7272 23.4199 46.2258 23.0502 45.8561L10.6589 33.4687H57.0939C57.616 33.4687 58.1168 33.2613 58.486 32.8921C58.8552 32.5229 59.0626 32.0221 59.0626 31.5Z" fill="black"/>
</svg>
