<svg width="63" height="63" viewBox="0 0 63 63" fill="none" xmlns="http://www.w3.org/2000/svg">
	<path fill-rule="evenodd" clip-rule="evenodd" d="M59.0621 31.5C59.0621 30.9778 58.8547 30.4771 58.4855 30.1078C58.1163 29.7386 57.6155 29.5312 57.0934 29.5312L10.6584 29.5312L23.0497 17.1438C23.4194 16.7742 23.6271 16.2728 23.6271 15.75C23.6271 15.2272 23.4194 14.7258 23.0497 14.3561C22.6801 13.9864 22.1787 13.7787 21.6559 13.7787C21.1331 13.7787 20.6317 13.9864 20.262 14.3561L4.51199 30.1061C4.32865 30.289 4.18318 30.5062 4.08393 30.7454C3.98468 30.9846 3.93359 31.241 3.93359 31.5C3.93359 31.7589 3.98468 32.0153 4.08393 32.2545C4.18318 32.4937 4.32865 32.711 4.51199 32.8938L20.262 48.6438C20.445 48.8269 20.6623 48.9721 20.9015 49.0711C21.1407 49.1702 21.397 49.2212 21.6559 49.2212C22.1787 49.2212 22.6801 49.0135 23.0497 48.6438C23.4194 48.2742 23.6271 47.7728 23.6271 47.25C23.6271 46.7272 23.4194 46.2258 23.0497 45.8561L10.6584 33.4687H57.0934C57.6155 33.4687 58.1163 33.2613 58.4855 32.8921C58.8547 32.5229 59.0621 32.0221 59.0621 31.5Z" fill="currentColor"/>
</svg>
