<svg width="33" height="31" viewBox="0 0 33 31" fill="none" xmlns="http://www.w3.org/2000/svg">
<ellipse cx="16.5" cy="15.5" rx="16.5" ry="15.5" fill="#EFEFEF"/>
<path d="M15.7698 20.7143C15.9791 20.8972 16.2628 21 16.5587 21C16.8545 21 17.1382 20.8972 17.3476 20.7143L23.6735 15.1788C23.8826 14.9956 24 14.7474 24 14.4885C24 14.2296 23.8826 13.9813 23.6735 13.7982L17.3476 8.26265C17.136 8.08989 16.856 7.99577 16.5666 8.00014C16.2773 8.00452 16.0012 8.10704 15.7966 8.2861C15.5919 8.46516 15.4748 8.70676 15.4698 8.95995C15.4648 9.21314 15.5723 9.45813 15.7698 9.64328L20.1905 13.5116H9.11635C8.82027 13.5116 8.53633 13.6145 8.32697 13.7977C8.11761 13.9809 8 14.2294 8 14.4885C8 14.7476 8.11761 14.996 8.32697 15.1792C8.53633 15.3624 8.82027 15.4653 9.11635 15.4653H20.1905L15.7698 19.3337C15.5607 19.5169 15.4433 19.7651 15.4433 20.024C15.4433 20.2829 15.5607 20.5312 15.7698 20.7143Z" fill="black"/>
</svg>
