<svg width="42" height="41" viewBox="0 0 42 41" fill="none" xmlns="http://www.w3.org/2000/svg">
<path d="M9.22057 17.9377C9.22057 16.4276 9.52526 14.9323 10.1172 13.5371C10.7092 12.142 11.5769 10.8743 12.6708 9.80652C13.7646 8.73872 15.0632 7.89169 16.4924 7.3138C17.9215 6.73591 19.4533 6.43848 21.0003 6.43848C22.5472 6.43848 24.079 6.73591 25.5082 7.3138C26.9373 7.89169 28.2359 8.73872 29.3298 9.80652C30.4236 10.8743 31.2913 12.142 31.8833 13.5371C32.4753 14.9323 32.7799 16.4276 32.7799 17.9377V17.9377C32.7799 23.6713 34.0104 27.0025 35.0932 28.8283C35.2082 29.0228 35.2689 29.2433 35.2691 29.4678C35.2693 29.6923 35.209 29.913 35.0944 30.1076C34.9797 30.3023 34.8147 30.4641 34.6158 30.5769C34.4169 30.6896 34.1912 30.7494 33.9612 30.7502H8.03932C7.80932 30.7494 7.58357 30.6896 7.38469 30.5769C7.18581 30.4641 7.02078 30.3023 6.90613 30.1076C6.79148 29.913 6.73124 29.6923 6.73145 29.4678C6.73165 29.2433 6.79229 29.0228 6.90729 28.8283C7.9901 27.0025 9.22057 23.6713 9.22057 17.9377Z" stroke="white" stroke-width="1.5" stroke-linecap="round" stroke-linejoin="round"/>
<path d="M15.75 30.75V32.0312C15.75 33.3905 16.3031 34.694 17.2877 35.6552C18.2723 36.6163 19.6076 37.1562 21 37.1562C22.3924 37.1562 23.7277 36.6163 24.7123 35.6552C25.6969 34.694 26.25 33.3905 26.25 32.0312V30.75" stroke="white" stroke-width="1.5" stroke-linecap="round" stroke-linejoin="round"/>
<path d="M30.0889 3.84375C32.7612 5.49049 34.918 7.82311 36.3232 10.5863" stroke="white" stroke-width="1.5" stroke-linecap="round" stroke-linejoin="round"/>
<path d="M5.67676 10.5863C7.08199 7.82311 9.2388 5.49049 11.9111 3.84375" stroke="white" stroke-width="1.5" stroke-linecap="round" stroke-linejoin="round"/>
</svg>
