<svg width="42" height="41" viewBox="0 0 42 41" fill="none" xmlns="http://www.w3.org/2000/svg">
<path d="M9.22008 17.9377C9.22008 16.4276 9.52478 14.9323 10.1168 13.5371C10.7087 12.142 11.5764 10.8743 12.6703 9.80652C13.7641 8.73872 15.0627 7.89169 16.4919 7.3138C17.9211 6.73591 19.4528 6.43848 20.9998 6.43848C22.5467 6.43848 24.0785 6.73591 25.5077 7.3138C26.9368 7.89169 28.2354 8.73872 29.3293 9.80652C30.4231 10.8743 31.2908 12.142 31.8828 13.5371C32.4748 14.9323 32.7795 16.4276 32.7795 17.9377V17.9377C32.7795 23.6713 34.0099 27.0025 35.0927 28.8283C35.2077 29.0228 35.2684 29.2433 35.2686 29.4678C35.2688 29.6923 35.2086 29.913 35.0939 30.1076C34.9793 30.3023 34.8142 30.4641 34.6153 30.5769C34.4165 30.6896 34.1907 30.7494 33.9607 30.7502H8.03883C7.80884 30.7494 7.58309 30.6896 7.3842 30.5769C7.18532 30.4641 7.02029 30.3023 6.90564 30.1076C6.79099 29.913 6.73075 29.6923 6.73096 29.4678C6.73116 29.2433 6.7918 29.0228 6.9068 28.8283C7.98962 27.0025 9.22008 23.6713 9.22008 17.9377Z" stroke="#282626" stroke-width="1.5" stroke-linecap="round" stroke-linejoin="round"/>
<path d="M15.75 30.75V32.0312C15.75 33.3905 16.3031 34.694 17.2877 35.6552C18.2723 36.6163 19.6076 37.1562 21 37.1562C22.3924 37.1562 23.7277 36.6163 24.7123 35.6552C25.6969 34.694 26.25 33.3905 26.25 32.0312V30.75" stroke="#282626" stroke-width="1.5" stroke-linecap="round" stroke-linejoin="round"/>
<path d="M30.0889 3.84375C32.7612 5.49049 34.918 7.82311 36.3232 10.5863" stroke="#282626" stroke-width="1.5" stroke-linecap="round" stroke-linejoin="round"/>
<path d="M5.67676 10.5863C7.08199 7.82311 9.2388 5.49049 11.9111 3.84375" stroke="#282626" stroke-width="1.5" stroke-linecap="round" stroke-linejoin="round"/>
</svg>
