<svg width="43" height="42" viewBox="0 0 43 42" fill="none" xmlns="http://www.w3.org/2000/svg">
<path d="M9.22057 18.9375C9.22057 17.4274 9.52526 15.932 10.1172 14.5369C10.7092 13.1417 11.5769 11.8741 12.6708 10.8063C13.7646 9.73847 15.0632 8.89145 16.4924 8.31356C17.9215 7.73567 19.4533 7.43823 21.0003 7.43823C22.5472 7.43823 24.079 7.73567 25.5082 8.31356C26.9373 8.89145 28.2359 9.73847 29.3298 10.8063C30.4236 11.8741 31.2913 13.1417 31.8833 14.5369C32.4753 15.932 32.7799 17.4274 32.7799 18.9375V18.9375C32.7799 24.671 34.0104 28.0023 35.0932 29.8281C35.2082 30.0225 35.2689 30.243 35.2691 30.4676C35.2693 30.6921 35.209 30.9127 35.0944 31.1074C34.9797 31.302 34.8147 31.4638 34.6158 31.5766C34.4169 31.6894 34.1912 31.7492 33.9612 31.7499H8.03932C7.80932 31.7492 7.58357 31.6894 7.38469 31.5766C7.18581 31.4638 7.02078 31.302 6.90613 31.1074C6.79148 30.9127 6.73124 30.6921 6.73145 30.4676C6.73165 30.243 6.79229 30.0225 6.90729 29.8281C7.9901 28.0023 9.22057 24.671 9.22057 18.9375Z" stroke="black" stroke-width="1.5" stroke-linecap="round" stroke-linejoin="round"/>
<path d="M15.75 31.75V33.0312C15.75 34.3905 16.3031 35.694 17.2877 36.6552C18.2723 37.6163 19.6076 38.1562 21 38.1562C22.3924 38.1562 23.7277 37.6163 24.7123 36.6552C25.6969 35.694 26.25 34.3905 26.25 33.0312V31.75" stroke="black" stroke-width="1.5" stroke-linecap="round" stroke-linejoin="round"/>
<path d="M30.0889 4.84375C32.7612 6.49049 34.918 8.82311 36.3232 11.5863" stroke="black" stroke-width="1.5" stroke-linecap="round" stroke-linejoin="round"/>
<path d="M5.67676 11.5863C7.08199 8.82311 9.2388 6.49049 11.9111 4.84375" stroke="black" stroke-width="1.5" stroke-linecap="round" stroke-linejoin="round"/>
<path d="M31.5 1.80786C36.809 1.80786 41.1504 6.01543 41.1504 11.2502C41.1502 16.4849 36.8089 20.6917 31.5 20.6917C26.1911 20.6917 21.8498 16.4849 21.8496 11.2502C21.8496 6.01543 26.191 1.80786 31.5 1.80786Z" fill="#DF2121" stroke="#DF2121" stroke-width="1.8"/>
</svg>
