<svg width="150" height="150" viewBox="0 0 150 150" fill="none" xmlns="http://www.w3.org/2000/svg">
<path d="M75 0C94.8912 0 113.968 7.90176 128.033 21.967C142.098 36.0322 150 55.1088 150 75C150 94.8912 142.098 113.968 128.033 128.033C113.968 142.098 94.8912 150 75 150C55.1088 150 36.0322 142.098 21.967 128.033C7.90176 113.968 0 94.8912 0 75C0 55.1088 7.90176 36.0322 21.967 21.967C36.0322 7.90176 55.1088 0 75 0ZM65.6571 89.7964L48.9964 73.125C48.3992 72.5277 47.6901 72.0539 46.9097 71.7307C46.1293 71.4074 45.2929 71.2411 44.4482 71.2411C43.6035 71.2411 42.7671 71.4074 41.9867 71.7307C41.2064 72.0539 40.4973 72.5277 39.9 73.125C38.6937 74.3313 38.0161 75.9673 38.0161 77.6732C38.0161 79.3791 38.6937 81.0152 39.9 82.2214L61.1143 103.436C61.7099 104.036 62.4184 104.512 63.199 104.838C63.9796 105.163 64.8169 105.33 65.6625 105.33C66.5081 105.33 67.3454 105.163 68.126 104.838C68.9066 104.512 69.6151 104.036 70.2107 103.436L114.139 59.4964C114.745 58.9016 115.226 58.1929 115.556 57.411C115.886 56.6292 116.058 55.7898 116.062 54.9412C116.066 54.0926 115.902 53.2516 115.579 52.4668C115.256 51.6819 114.781 50.9687 114.182 50.3683C113.582 49.7679 112.869 49.2922 112.085 48.9686C111.3 48.6449 110.46 48.4798 109.611 48.4828C108.762 48.4857 107.923 48.6567 107.141 48.9857C106.358 49.3148 105.649 49.7954 105.054 50.4L65.6571 89.7964Z" fill="#14AE5C"/>
</svg>
